<svg width="957" height="774" viewBox="0 0 957 774" fill="none" xmlns="http://www.w3.org/2000/svg">
<rect x="115" y="1" width="622" height="506" fill="#FA8D50" stroke="#FEEAEA" stroke-width="2"/>
<path d="M1 1.10406H163.693V414.181H1V1.10406Z" fill="#FA8D50" stroke="#FEEAEA" stroke-width="2"/>
<rect x="162.904" y="1.10406" width="170.431" height="413.077" fill="#FA8D50" stroke="#FEEAEA" stroke-width="2"/>
<rect x="333.545" y="1.10406" width="65.4248" height="213.891" fill="#FA8D50" stroke="#FEEAEA" stroke-width="2"/>
<rect x="399.286" y="1.10406" width="65.4248" height="213.891" fill="#FA8D50" stroke="#FEEAEA" stroke-width="2"/>
<path d="M446.779 121.998L436.623 124.906L436.612 123.653L444.885 121.424L444.884 121.325L436.572 119.258L436.56 117.866L444.832 115.598L444.831 115.498L436.52 113.472L436.509 112.219L446.715 114.879L446.726 116.151L438.634 118.497L438.634 118.577L446.768 120.725L446.779 121.998ZM439.607 102.93L439.618 104.163C439.264 104.24 438.954 104.371 438.687 104.557C438.42 104.739 438.197 104.96 438.017 105.221C437.833 105.479 437.697 105.764 437.607 106.076C437.517 106.389 437.473 106.714 437.476 107.053C437.482 107.669 437.643 108.226 437.959 108.722C438.275 109.216 438.737 109.606 439.347 109.894C439.956 110.178 440.701 110.315 441.583 110.304C442.464 110.293 443.207 110.138 443.811 109.839C444.415 109.537 444.87 109.135 445.177 108.634C445.484 108.13 445.635 107.569 445.629 106.953C445.626 106.615 445.577 106.291 445.481 105.98C445.386 105.67 445.246 105.388 445.061 105.135C444.873 104.879 444.644 104.663 444.374 104.487C444.101 104.308 443.788 104.185 443.436 104.116L443.425 102.883C443.946 102.97 444.413 103.133 444.826 103.373C445.239 103.613 445.592 103.914 445.883 104.275C446.172 104.636 446.393 105.043 446.546 105.495C446.699 105.944 446.778 106.425 446.783 106.939C446.79 107.807 446.585 108.582 446.167 109.263C445.749 109.945 445.151 110.484 444.372 110.881C443.593 111.279 442.667 111.484 441.593 111.497C440.52 111.51 439.59 111.327 438.804 110.949C438.019 110.571 437.411 110.046 436.98 109.375C436.55 108.705 436.331 107.935 436.323 107.067C436.318 106.553 436.389 106.07 436.534 105.617C436.679 105.161 436.894 104.749 437.179 104.381C437.461 104.013 437.806 103.704 438.215 103.454C438.62 103.204 439.084 103.029 439.607 102.93ZM440.913 96.705L442.007 96.6917L442.047 101.146L440.953 101.159L440.913 96.705ZM439.468 87.5382C439.134 87.6517 438.836 87.7995 438.572 87.9817C438.305 88.1606 438.078 88.3739 437.892 88.6215C437.705 88.8657 437.563 89.1425 437.467 89.452C437.37 89.7614 437.323 90.1001 437.327 90.468C437.332 91.0712 437.493 91.6178 437.809 92.1078C438.125 92.5978 438.587 92.985 439.197 93.2692C439.806 93.5535 440.551 93.6902 441.433 93.6795C442.314 93.6687 443.057 93.5121 443.661 93.2098C444.264 92.9074 444.72 92.5024 445.027 91.9949C445.334 91.4873 445.484 90.9187 445.479 90.2889C445.474 89.7056 445.345 89.1934 445.092 88.7524C444.836 88.308 444.478 87.9643 444.019 87.7214C443.556 87.4751 443.013 87.3558 442.39 87.3634L442.466 86.9846L442.494 90.0469L441.4 90.0603L441.365 86.1826L442.459 86.1693C443.297 86.159 444.028 86.3291 444.651 86.6795C445.274 87.0265 445.759 87.5112 446.106 88.1334C446.449 88.7524 446.625 89.4662 446.632 90.2749C446.64 91.1764 446.435 91.971 446.017 92.659C445.599 93.3436 445.001 93.8812 444.222 94.2719C443.443 94.6593 442.517 94.8595 441.443 94.8726C440.638 94.8824 439.913 94.7835 439.268 94.576C438.62 94.3651 438.067 94.0636 437.609 93.6714C437.152 93.2792 436.799 92.8129 436.552 92.2723C436.306 91.7317 436.179 91.1349 436.173 90.482C436.169 89.9451 436.245 89.4437 436.403 88.9777C436.558 88.5085 436.782 88.0897 437.073 87.7216C437.362 87.3501 437.708 87.0393 438.114 86.7891C438.516 86.5389 438.963 86.3644 439.456 86.2656L439.468 87.5382Z" fill="black"/>
<rect x="465.027" y="1.10406" width="70.9514" height="213.891" fill="#FA8D50" stroke="#FEEAEA" stroke-width="2"/>
<rect x="670" y="1" width="68" height="214" fill="#FA8D50" stroke="#FEEAEA" stroke-width="2"/>
<rect x="334" y="215" width="145" height="199" fill="#FA8D50" stroke="#FEEAEA" stroke-width="2"/>
<rect x="739" y="1" width="215" height="214" fill="#FA8D50" stroke="#FEEAEA" stroke-width="2"/>
<rect x="739" y="215" width="217" height="292" fill="#FA8D50" stroke="#FEEAEA" stroke-width="2"/>
<rect x="830" y="507" width="124" height="266" fill="#FA8D50" stroke="#FEEAEA" stroke-width="2"/>
<rect x="680" y="636" width="149" height="137" fill="#FA8D50" stroke="#FEEAEA" stroke-width="2"/>
<rect x="1" y="415" width="117" height="92" fill="#FA8D50" stroke="#FEEAEA" stroke-width="2"/>
<rect x="680" y="507" width="149" height="128" fill="#FA8D50" stroke="#FEEAEA" stroke-width="2"/>
<path d="M73.0791 224.855V214.673H76.6388C77.3481 214.673 77.9331 214.796 78.3938 215.041C78.8545 215.283 79.1975 215.61 79.4229 216.021C79.6483 216.428 79.761 216.881 79.761 217.378C79.761 217.815 79.6831 218.177 79.5273 218.462C79.3748 218.747 79.1727 218.972 78.9208 219.138C78.6722 219.304 78.4021 219.426 78.1104 219.506V219.605C78.4219 219.625 78.7352 219.734 79.05 219.933C79.3649 220.132 79.6284 220.417 79.8405 220.788C80.0526 221.16 80.1587 221.614 80.1587 222.151C80.1587 222.661 80.0427 223.12 79.8107 223.528C79.5787 223.935 79.2124 224.259 78.712 224.497C78.2115 224.736 77.5602 224.855 76.7581 224.855H73.0791ZM74.3121 223.761H76.7581C77.5635 223.761 78.1353 223.606 78.4733 223.294C78.8147 222.979 78.9854 222.598 78.9854 222.151C78.9854 221.806 78.8976 221.488 78.7219 221.196C78.5462 220.901 78.296 220.666 77.9712 220.49C77.6464 220.311 77.2619 220.222 76.8178 220.222H74.3121V223.761ZM74.3121 219.148H76.599C76.9702 219.148 77.305 219.075 77.6033 218.929C77.9049 218.783 78.1435 218.578 78.3192 218.313C78.4982 218.047 78.5877 217.736 78.5877 217.378C78.5877 216.931 78.4319 216.551 78.1203 216.239C77.8088 215.925 77.3149 215.767 76.6388 215.767H74.3121V219.148ZM85.5852 214.673V224.855H84.3522V215.966H84.2926L81.8068 217.617V216.364L84.3522 214.673H85.5852ZM91.9538 224.994C91.2975 224.994 90.7126 224.882 90.1988 224.656C89.6884 224.431 89.2824 224.118 88.9808 223.717C88.6825 223.312 88.5201 222.843 88.4936 222.31H89.7464C89.7729 222.638 89.8856 222.921 90.0845 223.16C90.2833 223.395 90.5435 223.578 90.865 223.707C91.1865 223.836 91.5428 223.901 91.9339 223.901C92.3714 223.901 92.7592 223.824 93.0973 223.672C93.4353 223.52 93.7005 223.307 93.8927 223.036C94.0849 222.764 94.1811 222.449 94.1811 222.091C94.1811 221.716 94.0883 221.387 93.9027 221.102C93.717 220.813 93.4453 220.588 93.0873 220.426C92.7294 220.263 92.2919 220.182 91.7748 220.182H90.9595V219.088H91.7748C92.1792 219.088 92.5338 219.015 92.8387 218.869C93.147 218.724 93.3873 218.518 93.5596 218.253C93.7353 217.988 93.8231 217.676 93.8231 217.318C93.8231 216.974 93.7469 216.674 93.5944 216.418C93.442 216.163 93.2265 215.964 92.9481 215.822C92.673 215.679 92.3482 215.608 91.9737 215.608C91.6224 215.608 91.2909 215.673 90.9794 215.802C90.6711 215.928 90.4192 216.112 90.2237 216.354C90.0281 216.592 89.9221 216.881 89.9055 217.219H88.7123C88.7322 216.685 88.8929 216.218 89.1946 215.817C89.4962 215.413 89.8906 215.098 90.3778 214.872C90.8683 214.647 91.4069 214.534 91.9936 214.534C92.6233 214.534 93.1635 214.662 93.6143 214.917C94.0651 215.169 94.4114 215.502 94.6534 215.916C94.8953 216.331 95.0163 216.778 95.0163 217.259C95.0163 217.832 94.8655 218.321 94.5639 218.725C94.2656 219.13 93.8596 219.41 93.3458 219.565V219.645C93.9888 219.751 94.491 220.024 94.8522 220.465C95.2135 220.903 95.3941 221.445 95.3941 222.091C95.3941 222.645 95.2433 223.142 94.9417 223.582C94.6434 224.02 94.2358 224.365 93.7187 224.617C93.2017 224.868 92.6134 224.994 91.9538 224.994Z" fill="black"/>
<path d="M48.7618 463.878V453.696H52.3214C53.0307 453.696 53.6157 453.819 54.0764 454.064C54.5371 454.306 54.8801 454.632 55.1055 455.043C55.3309 455.451 55.4436 455.903 55.4436 456.401C55.4436 456.838 55.3657 457.199 55.2099 457.484C55.0575 457.769 54.8553 457.995 54.6034 458.161C54.3548 458.326 54.0847 458.449 53.793 458.528V458.628C54.1046 458.648 54.4178 458.757 54.7326 458.956C55.0475 459.155 55.311 459.44 55.5231 459.811C55.7352 460.182 55.8413 460.636 55.8413 461.173C55.8413 461.684 55.7253 462.143 55.4933 462.55C55.2613 462.958 54.895 463.281 54.3946 463.52C53.8941 463.759 53.2428 463.878 52.4407 463.878H48.7618ZM49.9947 462.784H52.4407C53.2461 462.784 53.8179 462.628 54.1559 462.317C54.4973 462.002 54.668 461.621 54.668 461.173C54.668 460.829 54.5802 460.51 54.4045 460.219C54.2289 459.924 53.9786 459.688 53.6538 459.513C53.329 459.334 52.9445 459.244 52.5004 459.244H49.9947V462.784ZM49.9947 458.17H52.2816C52.6529 458.17 52.9876 458.098 53.2859 457.952C53.5875 457.806 53.8262 457.6 54.0018 457.335C54.1808 457.07 54.2703 456.759 54.2703 456.401C54.2703 455.953 54.1145 455.574 53.803 455.262C53.4914 454.947 52.9976 454.79 52.3214 454.79H49.9947V458.17ZM61.2678 453.696V463.878H60.0348V454.989H59.9752L57.4894 456.639V455.386L60.0348 453.696H61.2678ZM63.9574 461.79V460.776L68.4319 453.696H69.1677V455.267H68.6705L65.2898 460.617V460.696H71.3154V461.79H63.9574ZM68.75 463.878V461.482V461.009V453.696H69.9233V463.878H68.75Z" fill="black"/>
<path d="M230.233 225V214.818H233.793C234.502 214.818 235.087 214.941 235.548 215.186C236.008 215.428 236.351 215.754 236.577 216.165C236.802 216.573 236.915 217.026 236.915 217.523C236.915 217.96 236.837 218.321 236.681 218.607C236.529 218.892 236.326 219.117 236.075 219.283C235.826 219.448 235.556 219.571 235.264 219.651V219.75C235.576 219.77 235.889 219.879 236.204 220.078C236.519 220.277 236.782 220.562 236.994 220.933C237.206 221.304 237.312 221.759 237.312 222.295C237.312 222.806 237.196 223.265 236.964 223.673C236.732 224.08 236.366 224.403 235.866 224.642C235.365 224.881 234.714 225 233.912 225H230.233ZM231.466 223.906H233.912C234.717 223.906 235.289 223.75 235.627 223.439C235.969 223.124 236.139 222.743 236.139 222.295C236.139 221.951 236.051 221.633 235.876 221.341C235.7 221.046 235.45 220.811 235.125 220.635C234.8 220.456 234.416 220.366 233.972 220.366H231.466V223.906ZM231.466 219.293H233.753C234.124 219.293 234.459 219.22 234.757 219.074C235.059 218.928 235.297 218.723 235.473 218.457C235.652 218.192 235.741 217.881 235.741 217.523C235.741 217.075 235.586 216.696 235.274 216.384C234.963 216.069 234.469 215.912 233.793 215.912H231.466V219.293ZM242.739 214.818V225H241.506V216.111H241.446L238.961 217.761V216.509L241.506 214.818H242.739ZM245.667 225V224.105L249.028 220.426C249.422 219.995 249.747 219.621 250.002 219.303C250.258 218.981 250.447 218.679 250.569 218.398C250.695 218.113 250.758 217.814 250.758 217.503C250.758 217.145 250.672 216.835 250.5 216.573C250.331 216.311 250.099 216.109 249.804 215.967C249.509 215.824 249.177 215.753 248.809 215.753C248.418 215.753 248.077 215.834 247.785 215.996C247.497 216.156 247.273 216.379 247.114 216.668C246.958 216.956 246.88 217.294 246.88 217.682H245.707C245.707 217.085 245.845 216.562 246.12 216.111C246.395 215.66 246.769 215.309 247.243 215.057C247.721 214.805 248.256 214.679 248.849 214.679C249.446 214.679 249.974 214.805 250.435 215.057C250.896 215.309 251.257 215.648 251.519 216.076C251.781 216.504 251.912 216.979 251.912 217.503C251.912 217.877 251.844 218.244 251.708 218.602C251.575 218.956 251.343 219.352 251.012 219.79C250.684 220.224 250.228 220.754 249.645 221.381L247.358 223.827V223.906H252.091V225H245.667Z" fill="black"/>
<path d="M396.233 314V303.818H399.793C400.502 303.818 401.087 303.941 401.548 304.186C402.008 304.428 402.351 304.754 402.577 305.165C402.802 305.573 402.915 306.026 402.915 306.523C402.915 306.96 402.837 307.321 402.681 307.607C402.529 307.892 402.326 308.117 402.075 308.283C401.826 308.448 401.556 308.571 401.264 308.651V308.75C401.576 308.77 401.889 308.879 402.204 309.078C402.519 309.277 402.782 309.562 402.994 309.933C403.206 310.304 403.312 310.759 403.312 311.295C403.312 311.806 403.196 312.265 402.964 312.673C402.732 313.08 402.366 313.403 401.866 313.642C401.365 313.881 400.714 314 399.912 314H396.233ZM397.466 312.906H399.912C400.717 312.906 401.289 312.75 401.627 312.439C401.969 312.124 402.139 311.743 402.139 311.295C402.139 310.951 402.051 310.633 401.876 310.341C401.7 310.046 401.45 309.811 401.125 309.635C400.8 309.456 400.416 309.366 399.972 309.366H397.466V312.906ZM397.466 308.293H399.753C400.124 308.293 400.459 308.22 400.757 308.074C401.059 307.928 401.297 307.723 401.473 307.457C401.652 307.192 401.741 306.881 401.741 306.523C401.741 306.075 401.586 305.696 401.274 305.384C400.963 305.069 400.469 304.912 399.793 304.912H397.466V308.293ZM408.739 303.818V314H407.506V305.111H407.446L404.961 306.761V305.509L407.506 303.818H408.739ZM415.247 303.818V314H414.014V305.111H413.954L411.468 306.761V305.509L414.014 303.818H415.247Z" fill="black"/>
<path d="M512.534 121.876L502.322 124.508L502.336 123.256L510.651 121.251L510.652 121.152L502.384 118.861L502.4 117.469L510.715 115.425L510.716 115.325L502.448 113.074L502.462 111.822L512.612 114.757L512.598 116.03L504.46 118.156L504.46 118.236L512.548 120.603L512.534 121.876ZM505.745 102.619L505.731 103.852C505.376 103.919 505.063 104.042 504.793 104.22C504.522 104.395 504.294 104.611 504.109 104.867C503.921 105.119 503.779 105.4 503.682 105.71C503.586 106.021 503.536 106.345 503.532 106.683C503.526 107.299 503.675 107.86 503.981 108.365C504.287 108.867 504.742 109.27 505.345 109.574C505.948 109.874 506.691 110.031 507.572 110.044C508.454 110.057 509.2 109.923 509.809 109.64C510.419 109.354 510.882 108.965 511.199 108.472C511.516 107.976 511.678 107.42 511.685 106.804C511.689 106.466 511.646 106.14 511.556 105.827C511.467 105.515 511.333 105.229 511.153 104.971C510.97 104.71 510.746 104.488 510.479 104.305C510.21 104.119 509.9 103.986 509.549 103.908L509.563 102.675C510.082 102.776 510.546 102.952 510.954 103.203C511.362 103.455 511.708 103.765 511.993 104.133C512.274 104.502 512.486 104.915 512.63 105.371C512.775 105.824 512.844 106.307 512.838 106.821C512.829 107.689 512.608 108.458 512.176 109.128C511.745 109.798 511.136 110.321 510.349 110.697C509.563 111.073 508.633 111.253 507.559 111.237C506.486 111.221 505.56 111.014 504.782 110.614C504.004 110.215 503.407 109.674 502.99 108.992C502.573 108.309 502.37 107.534 502.379 106.666C502.385 106.152 502.465 105.671 502.619 105.222C502.773 104.771 502.996 104.364 503.288 104.004C503.577 103.644 503.929 103.344 504.342 103.105C504.753 102.866 505.22 102.704 505.745 102.619ZM507.175 96.431L508.269 96.4472L508.22 100.902L507.126 100.885L507.175 96.431ZM505.262 88.61C504.758 88.6622 504.364 88.8983 504.081 89.3184C503.798 89.7385 503.653 90.2568 503.647 90.8732C503.642 91.3239 503.71 91.7194 503.852 92.0596C503.994 92.3965 504.192 92.6613 504.445 92.854C504.698 93.0434 504.987 93.1405 505.312 93.1453C505.584 93.1494 505.818 93.0882 506.015 92.9619C506.209 92.8322 506.371 92.6655 506.503 92.462C506.631 92.2584 506.738 92.0445 506.823 91.8204C506.905 91.5962 506.972 91.39 507.024 91.2018L507.314 90.1719C507.386 89.9078 507.485 89.6143 507.612 89.2913C507.738 88.965 507.909 88.6543 508.124 88.3592C508.336 88.0607 508.607 87.8161 508.938 87.6255C509.268 87.4348 509.671 87.343 510.149 87.3501C510.699 87.3583 511.194 87.5098 511.635 87.8048C512.076 88.0964 512.425 88.5192 512.68 89.0733C512.936 89.624 513.06 90.2904 513.051 91.0726C513.043 91.8017 512.919 92.4313 512.677 92.9614C512.436 93.4882 512.104 93.9009 511.679 94.1996C511.255 94.4949 510.764 94.6583 510.207 94.6898L510.221 93.4172C510.606 93.3897 510.926 93.2652 511.18 93.0436C511.431 92.8186 511.62 92.533 511.746 92.1868C511.869 91.8373 511.933 91.4604 511.938 91.0561C511.943 90.5854 511.871 90.1617 511.723 89.785C511.571 89.4082 511.359 89.1083 511.086 88.8855C510.81 88.6626 510.487 88.5484 510.116 88.5429C509.778 88.5379 509.502 88.6283 509.287 88.814C509.073 88.9998 508.898 89.2458 508.762 89.552C508.626 89.8583 508.507 90.1897 508.403 90.5461L508.032 91.7936C507.794 92.5856 507.461 93.2104 507.032 93.6681C506.602 94.1258 506.045 94.3495 505.359 94.3393C504.789 94.3309 504.293 94.1694 503.872 93.8548C503.448 93.537 503.121 93.1145 502.892 92.5873C502.659 92.0568 502.546 91.4668 502.553 90.8172C502.561 90.161 502.685 89.5794 502.926 89.0725C503.163 88.5656 503.486 88.166 503.893 87.8737C504.301 87.5781 504.762 87.4259 505.276 87.4169L505.262 88.61Z" fill="black"/>
<path d="M387.661 120.78L377.423 123.26L377.45 122.007L385.786 120.127L385.788 120.028L377.547 117.613L377.578 116.222L385.915 114.302L385.917 114.202L377.675 111.828L377.703 110.575L387.819 113.662L387.791 114.935L379.631 116.939L379.629 117.019L387.69 119.508L387.661 120.78ZM381.087 101.422L381.06 102.654C380.704 102.716 380.39 102.835 380.118 103.009C379.845 103.18 379.615 103.392 379.427 103.645C379.236 103.895 379.091 104.174 378.991 104.482C378.891 104.791 378.838 105.114 378.83 105.452C378.817 106.069 378.96 106.632 379.26 107.141C379.561 107.648 380.011 108.057 380.611 108.37C381.211 108.68 381.951 108.848 382.832 108.874C383.714 108.901 384.461 108.777 385.073 108.504C385.686 108.227 386.154 107.845 386.476 107.357C386.798 106.866 386.967 106.312 386.98 105.696C386.988 105.358 386.948 105.032 386.863 104.717C386.777 104.403 386.645 104.116 386.469 103.855C386.289 103.591 386.067 103.366 385.803 103.179C385.535 102.988 385.226 102.851 384.877 102.768L384.904 101.535C385.422 101.644 385.884 101.827 386.289 102.084C386.695 102.342 387.037 102.657 387.317 103.03C387.594 103.403 387.802 103.819 387.941 104.277C388.08 104.732 388.144 105.217 388.133 105.73C388.114 106.598 387.885 107.364 387.446 108.027C387.007 108.691 386.392 109.204 385.602 109.569C384.811 109.933 383.879 110.099 382.806 110.067C381.733 110.035 380.809 109.814 380.036 109.403C379.263 108.992 378.672 108.442 378.262 107.753C377.853 107.065 377.658 106.286 377.677 105.418C377.689 104.904 377.774 104.425 377.933 103.978C378.092 103.529 378.32 103.126 378.616 102.77C378.909 102.414 379.264 102.12 379.68 101.887C380.093 101.654 380.562 101.499 381.087 101.422ZM382.586 95.2554L383.679 95.288L383.581 99.7415L382.488 99.7089L382.586 95.2554ZM388.271 93.2006L378.093 92.8968L378.172 89.338C378.187 88.6289 378.323 88.0477 378.578 87.5944C378.83 87.1411 379.164 86.8079 379.58 86.5948C379.992 86.3816 380.447 86.2825 380.944 86.2973C381.381 86.3104 381.741 86.399 382.022 86.5633C382.304 86.7242 382.525 86.933 382.685 87.1898C382.845 87.4433 382.961 87.717 383.035 88.011L383.134 88.0139C383.161 87.7031 383.277 87.3932 383.483 87.0843C383.688 86.7755 383.979 86.5205 384.355 86.3196C384.731 86.1186 385.187 86.0261 385.723 86.0421C386.234 86.0573 386.69 86.187 387.092 86.4311C387.495 86.6752 387.81 87.051 388.037 87.5585C388.265 88.066 388.369 88.7206 388.352 89.5225L388.271 93.2006ZM387.204 91.9353L387.258 89.4899C387.276 88.6847 387.133 88.1085 386.829 87.7612C386.522 87.4105 386.145 87.2285 385.698 87.2151C385.353 87.2048 385.033 87.2831 384.738 87.45C384.439 87.6169 384.198 87.86 384.015 88.1795C383.829 88.4989 383.731 88.8806 383.722 89.3246L383.666 91.8297L387.204 91.9353ZM382.593 91.7977L382.643 89.5113C382.652 89.1402 382.586 88.8033 382.447 88.5007C382.308 88.1949 382.108 87.9501 381.847 87.7666C381.585 87.5798 381.276 87.481 380.918 87.4703C380.471 87.457 380.088 87.6014 379.77 87.9036C379.448 88.2057 379.28 88.6947 379.265 89.3707L379.214 91.6968L382.593 91.7977Z" fill="black"/>
<path d="M724.466 694.818V705H723.233V694.818H724.466ZM726.381 695.912V694.818H734.018V695.912H730.816V705H729.583V695.912H726.381ZM740.276 705H738.983L742.722 694.818H743.994L747.733 705H746.44L743.398 696.429H743.318L740.276 705ZM740.753 701.023H745.963V702.116H740.753V701.023ZM752.043 705.159C751.407 705.159 750.845 704.998 750.358 704.677C749.871 704.352 749.49 703.895 749.214 703.305C748.939 702.711 748.802 702.01 748.802 701.202C748.802 700.4 748.939 699.704 749.214 699.114C749.49 698.524 749.872 698.068 750.363 697.746C750.853 697.425 751.42 697.264 752.063 697.264C752.56 697.264 752.953 697.347 753.241 697.513C753.533 697.675 753.755 697.861 753.908 698.07C754.063 698.275 754.184 698.444 754.271 698.577H754.37V694.818H755.543V705H754.41V703.827H754.271C754.184 703.966 754.062 704.142 753.903 704.354C753.744 704.562 753.517 704.75 753.222 704.915C752.927 705.078 752.534 705.159 752.043 705.159ZM752.202 704.105C752.673 704.105 753.071 703.982 753.396 703.737C753.72 703.489 753.967 703.146 754.136 702.708C754.305 702.267 754.39 701.759 754.39 701.182C754.39 700.612 754.307 700.113 754.141 699.685C753.976 699.254 753.73 698.92 753.406 698.681C753.081 698.439 752.68 698.318 752.202 698.318C751.705 698.318 751.291 698.446 750.96 698.701C750.631 698.953 750.384 699.296 750.219 699.73C750.056 700.161 749.975 700.645 749.975 701.182C749.975 701.725 750.058 702.219 750.224 702.663C750.393 703.104 750.641 703.455 750.969 703.717C751.301 703.976 751.712 704.105 752.202 704.105ZM757.855 705V697.364H758.989V698.557H759.088C759.247 698.149 759.504 697.833 759.859 697.607C760.213 697.379 760.639 697.264 761.136 697.264C761.64 697.264 762.059 697.379 762.394 697.607C762.732 697.833 762.996 698.149 763.185 698.557H763.264C763.46 698.162 763.753 697.849 764.144 697.617C764.535 697.382 765.004 697.264 765.551 697.264C766.234 697.264 766.792 697.478 767.227 697.906C767.661 698.33 767.878 698.991 767.878 699.889V705H766.705V699.889C766.705 699.326 766.55 698.923 766.242 698.681C765.934 698.439 765.571 698.318 765.153 698.318C764.616 698.318 764.201 698.481 763.906 698.805C763.611 699.127 763.463 699.535 763.463 700.028V705H762.27V699.77C762.27 699.336 762.129 698.986 761.847 698.721C761.566 698.452 761.203 698.318 760.759 698.318C760.454 698.318 760.169 698.399 759.903 698.562C759.642 698.724 759.429 698.95 759.267 699.238C759.108 699.523 759.028 699.853 759.028 700.227V705H757.855ZM770.023 705V697.364H771.196V705H770.023ZM770.62 696.091C770.391 696.091 770.194 696.013 770.028 695.857C769.866 695.701 769.784 695.514 769.784 695.295C769.784 695.077 769.866 694.889 770.028 694.734C770.194 694.578 770.391 694.5 770.62 694.5C770.848 694.5 771.044 694.578 771.206 694.734C771.372 694.889 771.455 695.077 771.455 695.295C771.455 695.514 771.372 695.701 771.206 695.857C771.044 696.013 770.848 696.091 770.62 696.091ZM774.519 700.406V705H773.345V697.364H774.479V698.557H774.578C774.757 698.169 775.029 697.857 775.394 697.622C775.758 697.384 776.229 697.264 776.806 697.264C777.323 697.264 777.775 697.37 778.163 697.582C778.551 697.791 778.852 698.109 779.068 698.537C779.283 698.961 779.391 699.498 779.391 700.148V705H778.218V700.227C778.218 699.627 778.062 699.16 777.75 698.825C777.439 698.487 777.011 698.318 776.468 698.318C776.093 698.318 775.758 698.399 775.463 698.562C775.172 698.724 774.941 698.961 774.772 699.273C774.603 699.584 774.519 699.962 774.519 700.406Z" fill="black"/>
<path d="M739.651 578H738.358L742.097 567.818H743.369L747.108 578H745.815L742.773 569.429H742.693L739.651 578ZM740.128 574.023H745.338V575.116H740.128V574.023ZM751.616 567.818V578H750.383V569.111H750.323L747.838 570.761V569.509L750.383 567.818H751.616ZM757.985 578.139C757.328 578.139 756.743 578.027 756.23 577.801C755.719 577.576 755.313 577.263 755.012 576.862C754.713 576.457 754.551 575.988 754.524 575.455H755.777C755.804 575.783 755.916 576.066 756.115 576.305C756.314 576.54 756.574 576.722 756.896 576.852C757.217 576.981 757.574 577.045 757.965 577.045C758.402 577.045 758.79 576.969 759.128 576.817C759.466 576.664 759.731 576.452 759.923 576.18C760.116 575.909 760.212 575.594 760.212 575.236C760.212 574.861 760.119 574.531 759.933 574.246C759.748 573.958 759.476 573.733 759.118 573.57C758.76 573.408 758.323 573.327 757.806 573.327H756.99V572.233H757.806C758.21 572.233 758.565 572.16 758.869 572.014C759.178 571.868 759.418 571.663 759.59 571.398C759.766 571.133 759.854 570.821 759.854 570.463C759.854 570.118 759.778 569.818 759.625 569.563C759.473 569.308 759.257 569.109 758.979 568.967C758.704 568.824 758.379 568.753 758.004 568.753C757.653 568.753 757.322 568.817 757.01 568.947C756.702 569.073 756.45 569.257 756.254 569.499C756.059 569.737 755.953 570.026 755.936 570.364H754.743C754.763 569.83 754.924 569.363 755.225 568.962C755.527 568.557 755.921 568.242 756.409 568.017C756.899 567.792 757.438 567.679 758.024 567.679C758.654 567.679 759.194 567.807 759.645 568.062C760.096 568.314 760.442 568.647 760.684 569.061C760.926 569.475 761.047 569.923 761.047 570.403C761.047 570.977 760.896 571.466 760.595 571.87C760.296 572.274 759.89 572.554 759.377 572.71V572.79C760.02 572.896 760.522 573.169 760.883 573.61C761.244 574.048 761.425 574.589 761.425 575.236C761.425 575.789 761.274 576.286 760.972 576.727C760.674 577.165 760.267 577.509 759.749 577.761C759.232 578.013 758.644 578.139 757.985 578.139Z" fill="black"/>
<path d="M686.651 116H685.358L689.097 105.818H690.369L694.108 116H692.815L689.773 107.429H689.693L686.651 116ZM687.128 112.023H692.338V113.116H687.128V112.023ZM698.616 105.818V116H697.383V107.111H697.323L694.838 108.761V107.509L697.383 105.818H698.616ZM704.865 116.139C704.116 116.139 703.478 115.935 702.951 115.528C702.424 115.117 702.021 114.522 701.743 113.743C701.465 112.961 701.325 112.016 701.325 110.909C701.325 109.809 701.465 108.869 701.743 108.09C702.025 107.308 702.429 106.711 702.956 106.3C703.486 105.886 704.123 105.679 704.865 105.679C705.608 105.679 706.242 105.886 706.769 106.3C707.3 106.711 707.704 107.308 707.982 108.09C708.264 108.869 708.405 109.809 708.405 110.909C708.405 112.016 708.266 112.961 707.987 113.743C707.709 114.522 707.306 115.117 706.779 115.528C706.252 115.935 705.614 116.139 704.865 116.139ZM704.865 115.045C705.608 115.045 706.184 114.687 706.595 113.972C707.006 113.256 707.212 112.235 707.212 110.909C707.212 110.027 707.117 109.277 706.928 108.657C706.743 108.037 706.474 107.565 706.123 107.24C705.775 106.915 705.356 106.753 704.865 106.753C704.129 106.753 703.554 107.116 703.14 107.842C702.726 108.564 702.519 109.587 702.519 110.909C702.519 111.791 702.611 112.54 702.797 113.156C702.983 113.773 703.249 114.242 703.597 114.563C703.949 114.885 704.371 115.045 704.865 115.045Z" fill="black"/>
<path d="M875.651 645H874.358L878.097 634.818H879.369L883.108 645H881.815L878.773 636.429H878.693L875.651 645ZM876.128 641.023H881.338V642.116H876.128V641.023ZM887.616 634.818V645H886.383V636.111H886.323L883.838 637.761V636.509L886.383 634.818H887.616ZM890.306 642.912V641.898L894.78 634.818H895.516V636.389H895.019L891.638 641.739V641.818H897.664V642.912H890.306ZM895.098 645V642.604V642.131V634.818H896.271V645H895.098Z" fill="black"/>
<path d="M826.222 115.507H824.93L828.668 105.325H829.941L833.68 115.507H832.387L829.345 106.936H829.265L826.222 115.507ZM826.7 111.53H831.91V112.623H826.7V111.53ZM838.188 105.325V115.507H836.955V106.618H836.895L834.409 108.268V107.015L836.955 105.325H838.188ZM844.696 105.325V115.507H843.463V106.618H843.403L840.917 108.268V107.015L843.463 105.325H844.696Z" fill="black"/>
<path d="M822.906 352.077H821.614L825.352 341.895H826.625L830.364 352.077H829.071L826.029 343.506H825.949L822.906 352.077ZM823.384 348.1H828.594V349.193H823.384V348.1ZM834.872 341.895V352.077H833.639V343.188H833.579L831.093 344.838V343.585L833.639 341.895H834.872ZM837.8 352.077V351.182L841.161 347.503C841.555 347.072 841.88 346.698 842.135 346.379C842.391 346.058 842.579 345.756 842.702 345.475C842.828 345.19 842.891 344.891 842.891 344.58C842.891 344.222 842.805 343.912 842.632 343.65C842.463 343.388 842.231 343.186 841.936 343.044C841.641 342.901 841.31 342.83 840.942 342.83C840.551 342.83 840.21 342.911 839.918 343.073C839.63 343.232 839.406 343.456 839.247 343.745C839.091 344.033 839.013 344.371 839.013 344.759H837.84C837.84 344.162 837.977 343.638 838.252 343.188C838.528 342.737 838.902 342.386 839.376 342.134C839.853 341.882 840.389 341.756 840.982 341.756C841.578 341.756 842.107 341.882 842.568 342.134C843.029 342.386 843.39 342.725 843.652 343.153C843.913 343.58 844.044 344.056 844.044 344.58C844.044 344.954 843.976 345.321 843.841 345.678C843.708 346.033 843.476 346.429 843.145 346.867C842.816 347.301 842.361 347.831 841.777 348.458L839.49 350.904V350.983H844.223V352.077H837.8Z" fill="black"/>
</svg>
