<svg width="1060" height="739" viewBox="0 0 1060 739" fill="none" xmlns="http://www.w3.org/2000/svg">
<rect x="1.5" y="2.5" width="1057" height="411" fill="#FA8D50" stroke="white" stroke-width="3"/>
<path d="M1.5 2.5H317.5V413.5H1.5V2.5Z" fill="#FA8D50" stroke="white" stroke-width="3"/>
<rect x="319.631" y="2.00397" width="221.669" height="315.795" fill="#FA8D50" stroke="white" stroke-width="3"/>
<rect x="647.5" y="2.5" width="411" height="735" fill="#FA8D50" stroke="white" stroke-width="3"/>
<path d="M406.58 163.48C409.82 163.48 411.44 164.607 411.44 166.86C411.44 168.353 410.653 169.333 409.08 169.8C410 170.08 410.72 170.513 411.24 171.1C411.76 171.673 412.02 172.367 412.02 173.18C412.02 174.353 411.587 175.287 410.72 175.98C409.867 176.66 408.673 177 407.14 177H400.86L400.98 176.2C401.807 176.107 402.453 175.92 402.92 175.64V164.84C402.453 164.56 401.767 164.373 400.86 164.28L400.96 163.48H406.58ZM404.82 175.94H407.14C408.1 175.94 408.827 175.707 409.32 175.24C409.813 174.773 410.06 174.093 410.06 173.2C410.06 172.307 409.767 171.62 409.18 171.14C408.607 170.647 407.747 170.4 406.6 170.4H404.82V175.94ZM404.82 169.34H406.62C407.633 169.34 408.373 169.14 408.84 168.74C409.32 168.34 409.56 167.727 409.56 166.9C409.56 166.073 409.32 165.467 408.84 165.08C408.36 164.68 407.6 164.48 406.56 164.48C406.16 164.48 405.58 164.5 404.82 164.54V169.34ZM416.828 170.68V169.74C417.908 169.713 418.734 169.473 419.308 169.02C419.894 168.567 420.188 167.96 420.188 167.2C420.188 166.427 420.014 165.86 419.668 165.5C419.321 165.127 418.828 164.94 418.188 164.94C417.548 164.94 417.048 165.113 416.688 165.46C416.341 165.807 416.168 166.24 416.168 166.76C416.168 167.053 416.241 167.327 416.388 167.58C416.054 167.833 415.714 167.96 415.368 167.96C415.021 167.96 414.754 167.833 414.568 167.58C414.381 167.327 414.288 166.993 414.288 166.58C414.288 165.847 414.661 165.227 415.408 164.72C416.154 164.2 417.101 163.94 418.248 163.94C419.408 163.94 420.348 164.233 421.068 164.82C421.801 165.393 422.168 166.14 422.168 167.06C422.168 168.553 421.248 169.593 419.408 170.18C421.354 170.647 422.328 171.747 422.328 173.48C422.328 174.547 421.934 175.427 421.148 176.12C420.361 176.8 419.314 177.14 418.008 177.14C416.701 177.14 415.668 176.88 414.908 176.36C414.148 175.84 413.768 175.127 413.768 174.22C413.768 173.847 413.888 173.56 414.128 173.36C414.368 173.147 414.668 173.04 415.028 173.04C415.388 173.04 415.721 173.16 416.028 173.4C415.908 173.72 415.848 174.027 415.848 174.32C415.848 174.867 416.048 175.307 416.448 175.64C416.861 175.973 417.428 176.14 418.148 176.14C418.868 176.14 419.428 175.9 419.828 175.42C420.241 174.94 420.448 174.28 420.448 173.44C420.448 172.6 420.141 171.933 419.528 171.44C418.914 170.933 418.014 170.68 416.828 170.68ZM427.218 166.1H424.378V165.18C425.818 165.033 427.151 164.64 428.378 164L429.098 164.28V175.64C429.604 175.907 430.491 176.113 431.758 176.26L431.678 177H424.278L424.338 176.26C425.591 176.127 426.551 175.92 427.218 175.64V166.1Z" fill="black"/>
<path d="M813.4 378.06C813.187 378.087 813.027 378.1 812.92 378.1C812.813 378.1 812.653 378.087 812.44 378.06V374.42C814.307 374.46 816.12 374.48 817.88 374.48L823.32 374.42V378.06C823.107 378.087 822.947 378.1 822.84 378.1C822.733 378.1 822.573 378.087 822.36 378.06C822.307 377.207 822.013 376.387 821.48 375.6C820.733 375.52 819.853 375.473 818.84 375.46V386.64C819.32 386.907 820.007 387.093 820.9 387.2L820.8 388H814.88L815 387.2C815.827 387.107 816.473 386.92 816.94 386.64V375.46C815.78 375.473 814.893 375.513 814.28 375.58C814.013 375.94 813.8 376.36 813.64 376.84C813.493 377.307 813.413 377.713 813.4 378.06ZM825.853 382.94C825.853 384.433 826.053 385.513 826.453 386.18C826.853 386.833 827.5 387.16 828.393 387.16C829.3 387.16 829.953 386.833 830.353 386.18C830.753 385.513 830.953 384.44 830.953 382.96C830.953 381.467 830.753 380.393 830.353 379.74C829.953 379.073 829.3 378.74 828.393 378.74C827.487 378.74 826.833 379.067 826.433 379.72C826.047 380.373 825.853 381.447 825.853 382.94ZM831.713 386.84C830.967 387.72 829.86 388.16 828.393 388.16C826.927 388.16 825.813 387.72 825.053 386.84C824.307 385.947 823.933 384.653 823.933 382.96C823.933 381.253 824.307 379.96 825.053 379.08C825.813 378.187 826.927 377.74 828.393 377.74C829.86 377.74 830.967 378.187 831.713 379.08C832.473 379.96 832.853 381.253 832.853 382.96C832.853 384.653 832.473 385.947 831.713 386.84ZM835.76 380.52C835.76 379.987 835.646 379.627 835.42 379.44C835.206 379.24 834.82 379.127 834.26 379.1L834.32 378.46C834.613 378.407 835.493 378.167 836.96 377.74L837.34 377.94L837.52 379.24C838.106 378.253 839.02 377.76 840.26 377.76C842.82 377.76 844.1 379.42 844.1 382.74C844.1 384.5 843.693 385.847 842.88 386.78C842.066 387.7 840.893 388.16 839.36 388.16C838.8 388.16 838.213 388.047 837.6 387.82V391.24C837.96 391.507 838.46 391.7 839.1 391.82L839.02 392.56H834.26L834.34 391.78C834.913 391.687 835.386 391.507 835.76 391.24V380.52ZM837.6 382.76V386.82C838.08 387.1 838.72 387.24 839.52 387.24C840.32 387.24 840.966 386.847 841.46 386.06C841.953 385.273 842.2 384.18 842.2 382.78C842.2 381.367 842.026 380.333 841.68 379.68C841.333 379.013 840.793 378.68 840.06 378.68C838.42 378.68 837.6 380.04 837.6 382.76ZM852.449 379H850.849L850.749 378.26C851.469 378.14 852.035 378.013 852.449 377.88V376.7C852.449 375.5 852.695 374.54 853.189 373.82C853.682 373.087 854.475 372.72 855.569 372.72C856.275 372.72 856.889 372.913 857.409 373.3C857.942 373.687 858.209 374.133 858.209 374.64C858.209 375.147 858.095 375.52 857.869 375.76C857.642 375.987 857.395 376.1 857.129 376.1C856.555 376.1 856.215 375.82 856.109 375.26C856.375 374.993 856.509 374.74 856.509 374.5C856.509 374.26 856.409 374.06 856.209 373.9C856.022 373.74 855.762 373.66 855.429 373.66C854.495 373.66 854.029 374.227 854.029 375.36C854.029 375.587 854.069 375.993 854.149 376.58C854.242 377.167 854.289 377.6 854.289 377.88H856.529V379H854.289V386.68C854.622 386.92 855.169 387.113 855.929 387.26L855.849 388H850.949L851.029 387.22C851.602 387.127 852.075 386.947 852.449 386.68V379ZM859.453 376.2C859.453 375.667 859.34 375.307 859.113 375.12C858.9 374.92 858.513 374.807 857.953 374.78L858.013 374.14C858.56 374.047 859.513 373.8 860.873 373.4L861.293 373.62V386.68C861.653 386.947 862.153 387.14 862.793 387.26L862.713 388H857.953L858.033 387.22C858.606 387.127 859.08 386.947 859.453 386.68V376.2ZM866.068 382.94C866.068 384.433 866.268 385.513 866.668 386.18C867.068 386.833 867.715 387.16 868.608 387.16C869.515 387.16 870.168 386.833 870.568 386.18C870.968 385.513 871.168 384.44 871.168 382.96C871.168 381.467 870.968 380.393 870.568 379.74C870.168 379.073 869.515 378.74 868.608 378.74C867.701 378.74 867.048 379.067 866.648 379.72C866.261 380.373 866.068 381.447 866.068 382.94ZM871.928 386.84C871.181 387.72 870.075 388.16 868.608 388.16C867.141 388.16 866.028 387.72 865.268 386.84C864.521 385.947 864.148 384.653 864.148 382.96C864.148 381.253 864.521 379.96 865.268 379.08C866.028 378.187 867.141 377.74 868.608 377.74C870.075 377.74 871.181 378.187 871.928 379.08C872.688 379.96 873.068 381.253 873.068 382.96C873.068 384.653 872.688 385.947 871.928 386.84ZM876.635 382.94C876.635 384.433 876.835 385.513 877.235 386.18C877.635 386.833 878.281 387.16 879.175 387.16C880.081 387.16 880.735 386.833 881.135 386.18C881.535 385.513 881.735 384.44 881.735 382.96C881.735 381.467 881.535 380.393 881.135 379.74C880.735 379.073 880.081 378.74 879.175 378.74C878.268 378.74 877.615 379.067 877.215 379.72C876.828 380.373 876.635 381.447 876.635 382.94ZM882.495 386.84C881.748 387.72 880.641 388.16 879.175 388.16C877.708 388.16 876.595 387.72 875.835 386.84C875.088 385.947 874.715 384.653 874.715 382.96C874.715 381.253 875.088 379.96 875.835 379.08C876.595 378.187 877.708 377.74 879.175 377.74C880.641 377.74 881.748 378.187 882.495 379.08C883.255 379.96 883.635 381.253 883.635 382.96C883.635 384.653 883.255 385.947 882.495 386.84ZM886.701 380.52C886.701 379.987 886.588 379.627 886.361 379.44C886.148 379.24 885.761 379.127 885.201 379.1L885.261 378.46C885.554 378.407 886.434 378.167 887.901 377.74L888.281 377.94L888.501 379.44C889.261 378.307 890.121 377.74 891.081 377.74C891.601 377.74 892.048 377.893 892.421 378.2C892.808 378.507 893.001 378.893 893.001 379.36C893.001 379.813 892.894 380.173 892.681 380.44C892.481 380.707 892.228 380.84 891.921 380.84C891.628 380.84 891.374 380.78 891.161 380.66C890.948 380.54 890.814 380.38 890.761 380.18C890.908 380.033 890.981 379.833 890.981 379.58C890.981 379.14 890.774 378.92 890.361 378.92C889.948 378.92 889.541 379.227 889.141 379.84C888.741 380.453 888.541 381.1 888.541 381.78V386.68C888.941 386.947 889.508 387.14 890.241 387.26L890.161 388H885.201L885.281 387.22C885.854 387.127 886.328 386.947 886.701 386.68V380.52Z" fill="black"/>
<path d="M151.58 163.48C154.82 163.48 156.44 164.607 156.44 166.86C156.44 168.353 155.653 169.333 154.08 169.8C155 170.08 155.72 170.513 156.24 171.1C156.76 171.673 157.02 172.367 157.02 173.18C157.02 174.353 156.587 175.287 155.72 175.98C154.867 176.66 153.673 177 152.14 177H145.86L145.98 176.2C146.807 176.107 147.453 175.92 147.92 175.64V164.84C147.453 164.56 146.767 164.373 145.86 164.28L145.96 163.48H151.58ZM149.82 175.94H152.14C153.1 175.94 153.827 175.707 154.32 175.24C154.813 174.773 155.06 174.093 155.06 173.2C155.06 172.307 154.767 171.62 154.18 171.14C153.607 170.647 152.747 170.4 151.6 170.4H149.82V175.94ZM149.82 169.34H151.62C152.633 169.34 153.373 169.14 153.84 168.74C154.32 168.34 154.56 167.727 154.56 166.9C154.56 166.073 154.32 165.467 153.84 165.08C153.36 164.68 152.6 164.48 151.56 164.48C151.16 164.48 150.58 164.5 149.82 164.54V169.34ZM161.828 170.68V169.74C162.908 169.713 163.734 169.473 164.308 169.02C164.894 168.567 165.188 167.96 165.188 167.2C165.188 166.427 165.014 165.86 164.668 165.5C164.321 165.127 163.828 164.94 163.188 164.94C162.548 164.94 162.048 165.113 161.688 165.46C161.341 165.807 161.168 166.24 161.168 166.76C161.168 167.053 161.241 167.327 161.388 167.58C161.054 167.833 160.714 167.96 160.368 167.96C160.021 167.96 159.754 167.833 159.568 167.58C159.381 167.327 159.288 166.993 159.288 166.58C159.288 165.847 159.661 165.227 160.408 164.72C161.154 164.2 162.101 163.94 163.248 163.94C164.408 163.94 165.348 164.233 166.068 164.82C166.801 165.393 167.168 166.14 167.168 167.06C167.168 168.553 166.248 169.593 164.408 170.18C166.354 170.647 167.328 171.747 167.328 173.48C167.328 174.547 166.934 175.427 166.148 176.12C165.361 176.8 164.314 177.14 163.008 177.14C161.701 177.14 160.668 176.88 159.908 176.36C159.148 175.84 158.768 175.127 158.768 174.22C158.768 173.847 158.888 173.56 159.128 173.36C159.368 173.147 159.668 173.04 160.028 173.04C160.388 173.04 160.721 173.16 161.028 173.4C160.908 173.72 160.848 174.027 160.848 174.32C160.848 174.867 161.048 175.307 161.448 175.64C161.861 175.973 162.428 176.14 163.148 176.14C163.868 176.14 164.428 175.9 164.828 175.42C165.241 174.94 165.448 174.28 165.448 173.44C165.448 172.6 165.141 171.933 164.528 171.44C163.914 170.933 163.014 170.68 161.828 170.68ZM169.458 177V175.78C171.844 173.727 173.484 172.1 174.378 170.9C175.284 169.687 175.738 168.527 175.738 167.42C175.738 165.78 175.011 164.96 173.558 164.96C172.918 164.96 172.404 165.153 172.018 165.54C171.631 165.913 171.438 166.353 171.438 166.86C171.438 167.353 171.584 167.793 171.878 168.18C171.598 168.487 171.251 168.64 170.838 168.64C170.424 168.64 170.091 168.513 169.838 168.26C169.598 168.007 169.478 167.607 169.478 167.06C169.478 166.247 169.878 165.527 170.678 164.9C171.491 164.273 172.498 163.96 173.698 163.96C174.898 163.96 175.871 164.287 176.618 164.94C177.364 165.593 177.738 166.48 177.738 167.6C177.738 168.707 177.278 169.867 176.358 171.08C175.438 172.293 173.891 173.74 171.718 175.42H178.258V177H169.458Z" fill="black"/>
</svg>
