<svg width="1077" height="721" viewBox="0 0 1077 721" fill="none" xmlns="http://www.w3.org/2000/svg">
<rect x="2" y="2" width="836" height="470" fill="#FA8D50" stroke="#F5F5F5" stroke-width="2"/>
<path d="M1.5 1.5H187.5V360.5H1.5V1.5Z" fill="#FA8D50" stroke="#F5F5F5" stroke-width="3"/>
<rect x="190.5" y="1.5" width="192" height="359" fill="#FA8D50" stroke="#F5F5F5" stroke-width="3"/>
<rect x="383.5" y="1.5" width="269" height="197" fill="#FA8D50" stroke="#F5F5F5" stroke-width="3"/>
<rect x="383.5" y="199.5" width="237" height="161" fill="#FA8D50" stroke="#F5F5F5" stroke-width="3"/>
<rect x="840" y="1" width="183" height="197" fill="#FA8D50" stroke="#F5F5F5" stroke-width="2"/>
<rect x="840" y="198" width="183" height="522" fill="#FA8D50" stroke="#F5F5F5" stroke-width="2"/>
<path d="M510.261 95.4989C513.501 95.4989 515.121 96.6255 515.121 98.8789C515.121 100.372 514.334 101.352 512.761 101.819C513.681 102.099 514.401 102.532 514.921 103.119C515.441 103.692 515.701 104.386 515.701 105.199C515.701 106.372 515.267 107.306 514.401 107.999C513.547 108.679 512.354 109.019 510.821 109.019H504.541L504.661 108.219C505.487 108.126 506.134 107.939 506.601 107.659V96.8589C506.134 96.5789 505.447 96.3922 504.541 96.2989L504.641 95.4989H510.261ZM508.501 107.959H510.821C511.781 107.959 512.507 107.726 513.001 107.259C513.494 106.792 513.741 106.112 513.741 105.219C513.741 104.326 513.447 103.639 512.861 103.159C512.287 102.666 511.427 102.419 510.281 102.419H508.501V107.959ZM508.501 101.359H510.301C511.314 101.359 512.054 101.159 512.521 100.759C513.001 100.359 513.241 99.7455 513.241 98.9189C513.241 98.0922 513.001 97.4855 512.521 97.0989C512.041 96.6989 511.281 96.4989 510.241 96.4989C509.841 96.4989 509.261 96.5189 508.501 96.5589V101.359ZM517.708 109.019V107.799C520.095 105.746 521.735 104.119 522.628 102.919C523.535 101.706 523.988 100.546 523.988 99.4389C523.988 97.7989 523.262 96.9789 521.808 96.9789C521.168 96.9789 520.655 97.1722 520.268 97.5589C519.882 97.9322 519.688 98.3722 519.688 98.8789C519.688 99.3722 519.835 99.8122 520.128 100.199C519.848 100.506 519.502 100.659 519.088 100.659C518.675 100.659 518.342 100.532 518.088 100.279C517.848 100.026 517.728 99.6255 517.728 99.0789C517.728 98.2655 518.128 97.5455 518.928 96.9189C519.742 96.2922 520.748 95.9789 521.948 95.9789C523.148 95.9789 524.122 96.3055 524.868 96.9589C525.615 97.6122 525.988 98.4989 525.988 99.6189C525.988 100.726 525.528 101.886 524.608 103.099C523.688 104.312 522.142 105.759 519.968 107.439H526.508V109.019H517.708ZM530.933 106.699C531.346 107.619 532.133 108.079 533.293 108.079C534.453 108.079 535.239 107.619 535.653 106.699C536.066 105.779 536.273 104.399 536.273 102.559C536.273 100.706 536.066 99.3255 535.653 98.4189C535.239 97.4989 534.453 97.0389 533.293 97.0389C532.133 97.0389 531.346 97.4989 530.933 98.4189C530.519 99.3255 530.313 100.706 530.313 102.559C530.313 104.399 530.519 105.779 530.933 106.699ZM536.993 107.399C536.166 108.559 534.933 109.139 533.293 109.139C531.653 109.139 530.419 108.559 529.593 107.399C528.766 106.226 528.353 104.606 528.353 102.539C528.353 100.472 528.766 98.8655 529.593 97.7189C530.419 96.5589 531.653 95.9789 533.293 95.9789C534.933 95.9789 536.166 96.5589 536.993 97.7189C537.819 98.8655 538.233 100.472 538.233 102.539C538.233 104.606 537.819 106.226 536.993 107.399Z" fill="black"/>
<path d="M497.813 269.553C501.053 269.553 502.673 270.68 502.673 272.933C502.673 274.427 501.886 275.407 500.313 275.873C501.233 276.153 501.953 276.587 502.473 277.173C502.993 277.747 503.253 278.44 503.253 279.253C503.253 280.427 502.82 281.36 501.953 282.053C501.1 282.733 499.906 283.073 498.373 283.073H492.093L492.213 282.273C493.04 282.18 493.686 281.993 494.153 281.713V270.913C493.686 270.633 493 270.447 492.093 270.353L492.193 269.553H497.813ZM496.053 282.013H498.373C499.333 282.013 500.06 281.78 500.553 281.313C501.046 280.847 501.293 280.167 501.293 279.273C501.293 278.38 501 277.693 500.413 277.213C499.84 276.72 498.98 276.473 497.833 276.473H496.053V282.013ZM496.053 275.413H497.853C498.866 275.413 499.606 275.213 500.073 274.813C500.553 274.413 500.793 273.8 500.793 272.973C500.793 272.147 500.553 271.54 500.073 271.153C499.593 270.753 498.833 270.553 497.793 270.553C497.393 270.553 496.813 270.573 496.053 270.613V275.413ZM505.261 283.073V281.853C507.647 279.8 509.287 278.173 510.181 276.973C511.087 275.76 511.541 274.6 511.541 273.493C511.541 271.853 510.814 271.033 509.361 271.033C508.721 271.033 508.207 271.227 507.821 271.613C507.434 271.987 507.241 272.427 507.241 272.933C507.241 273.427 507.387 273.867 507.681 274.253C507.401 274.56 507.054 274.713 506.641 274.713C506.227 274.713 505.894 274.587 505.641 274.333C505.401 274.08 505.281 273.68 505.281 273.133C505.281 272.32 505.681 271.6 506.481 270.973C507.294 270.347 508.301 270.033 509.501 270.033C510.701 270.033 511.674 270.36 512.421 271.013C513.167 271.667 513.541 272.553 513.541 273.673C513.541 274.78 513.081 275.94 512.161 277.153C511.241 278.367 509.694 279.813 507.521 281.493H514.061V283.073H505.261ZM518.685 272.173H515.845V271.253C517.285 271.107 518.618 270.713 519.845 270.073L520.565 270.353V281.713C521.071 281.98 521.958 282.187 523.225 282.333L523.145 283.073H515.745L515.805 282.333C517.058 282.2 518.018 281.993 518.685 281.713V272.173Z" fill="black"/>
<path d="M270.875 190.168C274.115 190.168 275.735 191.295 275.735 193.548C275.735 195.041 274.948 196.021 273.375 196.488C274.295 196.768 275.015 197.201 275.535 197.788C276.055 198.361 276.315 199.055 276.315 199.868C276.315 201.041 275.882 201.975 275.015 202.668C274.162 203.348 272.968 203.688 271.435 203.688H265.155L265.275 202.888C266.102 202.795 266.748 202.608 267.215 202.328V191.528C266.748 191.248 266.062 191.061 265.155 190.968L265.255 190.168H270.875ZM269.115 202.628H271.435C272.395 202.628 273.122 202.395 273.615 201.928C274.108 201.461 274.355 200.781 274.355 199.888C274.355 198.995 274.062 198.308 273.475 197.828C272.902 197.335 272.042 197.088 270.895 197.088H269.115V202.628ZM269.115 196.028H270.915C271.928 196.028 272.668 195.828 273.135 195.428C273.615 195.028 273.855 194.415 273.855 193.588C273.855 192.761 273.615 192.155 273.135 191.768C272.655 191.368 271.895 191.168 270.855 191.168C270.455 191.168 269.875 191.188 269.115 191.228V196.028ZM278.323 203.688V202.468C280.709 200.415 282.349 198.788 283.243 197.588C284.149 196.375 284.603 195.215 284.603 194.108C284.603 192.468 283.876 191.648 282.423 191.648C281.783 191.648 281.269 191.841 280.883 192.228C280.496 192.601 280.303 193.041 280.303 193.548C280.303 194.041 280.449 194.481 280.743 194.868C280.463 195.175 280.116 195.328 279.703 195.328C279.289 195.328 278.956 195.201 278.703 194.948C278.463 194.695 278.343 194.295 278.343 193.748C278.343 192.935 278.743 192.215 279.543 191.588C280.356 190.961 281.363 190.648 282.563 190.648C283.763 190.648 284.736 190.975 285.483 191.628C286.229 192.281 286.603 193.168 286.603 194.288C286.603 195.395 286.143 196.555 285.223 197.768C284.303 198.981 282.756 200.428 280.583 202.108H287.123V203.688H278.323ZM288.987 203.688V202.468C291.373 200.415 293.013 198.788 293.907 197.588C294.813 196.375 295.267 195.215 295.267 194.108C295.267 192.468 294.54 191.648 293.087 191.648C292.447 191.648 291.933 191.841 291.547 192.228C291.16 192.601 290.967 193.041 290.967 193.548C290.967 194.041 291.113 194.481 291.407 194.868C291.127 195.175 290.78 195.328 290.367 195.328C289.953 195.328 289.62 195.201 289.367 194.948C289.127 194.695 289.007 194.295 289.007 193.748C289.007 192.935 289.407 192.215 290.207 191.588C291.02 190.961 292.027 190.648 293.227 190.648C294.427 190.648 295.4 190.975 296.147 191.628C296.893 192.281 297.267 193.168 297.267 194.288C297.267 195.395 296.807 196.555 295.887 197.768C294.967 198.981 293.42 200.428 291.247 202.108H297.787V203.688H288.987Z" fill="black"/>
<path d="M82.2382 190.168C85.4782 190.168 87.0982 191.295 87.0982 193.548C87.0982 195.041 86.3115 196.021 84.7382 196.488C85.6582 196.768 86.3782 197.201 86.8982 197.788C87.4182 198.361 87.6782 199.055 87.6782 199.868C87.6782 201.041 87.2449 201.975 86.3782 202.668C85.5249 203.348 84.3315 203.688 82.7982 203.688H76.5182L76.6382 202.888C77.4649 202.795 78.1115 202.608 78.5782 202.328V191.528C78.1115 191.248 77.4249 191.061 76.5182 190.968L76.6182 190.168H82.2382ZM80.4782 202.628H82.7982C83.7582 202.628 84.4849 202.395 84.9782 201.928C85.4715 201.461 85.7182 200.781 85.7182 199.888C85.7182 198.995 85.4249 198.308 84.8382 197.828C84.2649 197.335 83.4049 197.088 82.2582 197.088H80.4782V202.628ZM80.4782 196.028H82.2782C83.2915 196.028 84.0315 195.828 84.4982 195.428C84.9782 195.028 85.2182 194.415 85.2182 193.588C85.2182 192.761 84.9782 192.155 84.4982 191.768C84.0182 191.368 83.2582 191.168 82.2182 191.168C81.8182 191.168 81.2382 191.188 80.4782 191.228V196.028ZM89.686 203.688V202.468C92.0727 200.415 93.7127 198.788 94.606 197.588C95.5127 196.375 95.966 195.215 95.966 194.108C95.966 192.468 95.2393 191.648 93.786 191.648C93.146 191.648 92.6327 191.841 92.246 192.228C91.8593 192.601 91.666 193.041 91.666 193.548C91.666 194.041 91.8127 194.481 92.106 194.868C91.826 195.175 91.4793 195.328 91.066 195.328C90.6527 195.328 90.3193 195.201 90.066 194.948C89.826 194.695 89.706 194.295 89.706 193.748C89.706 192.935 90.106 192.215 90.906 191.588C91.7193 190.961 92.726 190.648 93.926 190.648C95.126 190.648 96.0993 190.975 96.846 191.628C97.5927 192.281 97.966 193.168 97.966 194.288C97.966 195.395 97.506 196.555 96.586 197.768C95.666 198.981 94.1193 200.428 91.946 202.108H98.486V203.688H89.686ZM103.15 197.368V196.428C104.23 196.401 105.057 196.161 105.63 195.708C106.217 195.255 106.51 194.648 106.51 193.888C106.51 193.115 106.337 192.548 105.99 192.188C105.643 191.815 105.15 191.628 104.51 191.628C103.87 191.628 103.37 191.801 103.01 192.148C102.663 192.495 102.49 192.928 102.49 193.448C102.49 193.741 102.563 194.015 102.71 194.268C102.377 194.521 102.037 194.648 101.69 194.648C101.343 194.648 101.077 194.521 100.89 194.268C100.703 194.015 100.61 193.681 100.61 193.268C100.61 192.535 100.983 191.915 101.73 191.408C102.477 190.888 103.423 190.628 104.57 190.628C105.73 190.628 106.67 190.921 107.39 191.508C108.123 192.081 108.49 192.828 108.49 193.748C108.49 195.241 107.57 196.281 105.73 196.868C107.677 197.335 108.65 198.435 108.65 200.168C108.65 201.235 108.257 202.115 107.47 202.808C106.683 203.488 105.637 203.828 104.33 203.828C103.023 203.828 101.99 203.568 101.23 203.048C100.47 202.528 100.09 201.815 100.09 200.908C100.09 200.535 100.21 200.248 100.45 200.048C100.69 199.835 100.99 199.728 101.35 199.728C101.71 199.728 102.043 199.848 102.35 200.088C102.23 200.408 102.17 200.715 102.17 201.008C102.17 201.555 102.37 201.995 102.77 202.328C103.183 202.661 103.75 202.828 104.47 202.828C105.19 202.828 105.75 202.588 106.15 202.108C106.563 201.628 106.77 200.968 106.77 200.128C106.77 199.288 106.463 198.621 105.85 198.128C105.237 197.621 104.337 197.368 103.15 197.368Z" fill="black"/>
<path d="M929.696 510.591L929.65 505.991C929.328 505.741 928.912 505.558 928.405 505.444C927.897 505.315 927.623 505.245 927.582 505.232L927.694 504.371L930.859 504.879L930.956 514.538L930.155 514.426C930.053 513.601 929.86 512.956 929.575 512.492L918.776 512.6C918.514 513.083 918.334 513.771 918.237 514.666L917.436 514.574L917.376 508.654L918.177 508.766C918.279 509.592 918.472 510.237 918.757 510.7L929.696 510.591ZM925.603 501.303L925.923 501.3C927.576 501.283 928.687 501.052 929.256 500.607C929.785 500.188 930.045 499.512 930.036 498.579C930.026 497.632 929.625 496.829 928.832 496.171L929.505 495.484C930.46 496.288 930.944 497.376 930.958 498.749C930.974 500.363 930.539 501.52 929.652 502.223C928.766 502.912 927.489 503.264 925.823 503.281C924.156 503.298 922.866 502.937 921.952 502.2C921.024 501.462 920.554 500.387 920.539 498.974C920.525 497.561 920.889 496.57 921.63 496.003C922.371 495.435 923.481 495.124 924.961 495.069L925.545 495.504L925.603 501.303ZM921.42 499.005C921.435 500.525 922.563 501.294 924.803 501.311L924.6 497.013C923.48 497.024 922.668 497.172 922.164 497.457C921.66 497.743 921.412 498.258 921.42 499.005ZM930.876 490.603C930.885 491.457 930.678 492.125 930.256 492.61C929.821 493.081 929.177 493.32 928.323 493.329C927.457 493.338 926.753 493.018 926.214 492.37C925.674 491.709 925.351 490.745 925.245 489.48L925.108 487.781L923.348 487.799C922.628 487.806 922.109 487.958 921.792 488.254C921.462 488.538 921.299 488.993 921.306 489.619C921.317 490.752 921.649 491.316 922.303 491.309C922.663 491.306 922.927 491.083 923.096 490.641C923.776 490.634 924.12 491.044 924.128 491.871C924.132 492.244 924.022 492.545 923.797 492.774C923.573 493.003 923.274 493.12 922.901 493.123C922.154 493.131 921.565 492.823 921.132 492.201C920.685 491.565 920.456 490.694 920.445 489.588C920.434 488.468 920.685 487.585 921.199 486.94C921.699 486.295 922.409 485.968 923.329 485.959L929.349 485.898C929.599 485.563 929.787 485.061 929.914 484.393L930.655 484.465L930.684 487.445L929.727 487.675C930.481 488.454 930.864 489.43 930.876 490.603ZM928.224 491.43C929.398 491.418 929.98 490.959 929.971 490.052C929.963 489.332 929.542 488.563 928.707 487.745L925.987 487.772L926.144 489.391C926.203 490.03 926.422 490.535 926.799 490.904C927.176 491.26 927.651 491.436 928.224 491.43ZM923.15 482.024C922.616 482.029 922.258 482.146 922.073 482.375C921.875 482.59 921.766 482.978 921.745 483.538L921.104 483.485C921.048 483.192 920.799 482.314 920.358 480.852L920.554 480.47L922.052 480.235C920.911 479.486 920.336 478.632 920.326 477.672C920.321 477.152 920.47 476.704 920.773 476.328C921.075 475.938 921.46 475.741 921.927 475.736C922.38 475.731 922.741 475.834 923.01 476.045C923.279 476.242 923.414 476.494 923.417 476.801C923.42 477.094 923.363 477.348 923.245 477.563C923.127 477.777 922.969 477.912 922.769 477.968C922.621 477.822 922.42 477.751 922.167 477.754C921.727 477.758 921.509 477.967 921.513 478.38C921.517 478.794 921.828 479.197 922.445 479.591C923.063 479.985 923.711 480.178 924.391 480.172L929.291 480.122C929.554 479.72 929.741 479.151 929.854 478.417L930.595 478.489L930.644 483.449L929.864 483.377C929.765 482.804 929.58 482.333 929.309 481.962L923.15 482.024ZM923.062 473.296C922.529 473.301 922.17 473.418 921.986 473.647C921.788 473.862 921.678 474.25 921.657 474.81L921.017 474.756C920.961 474.464 920.712 473.586 920.27 472.124L920.467 471.742L921.805 471.528C920.77 470.792 920.248 469.877 920.237 468.784C920.226 467.691 920.484 466.848 921.012 466.256C921.526 465.664 922.249 465.364 923.183 465.354L929.142 465.295C929.392 464.959 929.581 464.457 929.707 463.789L930.448 463.861L930.496 468.601L929.755 468.549C929.67 468.016 929.472 467.545 929.161 467.134L923.401 467.192C921.975 467.206 921.267 467.827 921.28 469.054C921.285 469.547 921.456 470.018 921.794 470.468C922.132 470.918 922.568 471.247 923.104 471.455L929.204 471.394C929.467 471.032 929.655 470.53 929.769 469.889L930.509 469.961L930.557 474.721L929.776 474.649C929.677 474.076 929.492 473.605 929.222 473.234L923.062 473.296ZM922.903 461.342C922.369 461.347 922.01 461.464 921.826 461.693C921.628 461.908 921.519 462.296 921.498 462.856L920.857 462.802C920.758 462.257 920.502 461.306 920.088 459.95L920.304 459.528L929.084 459.44C929.347 459.077 929.535 458.575 929.649 457.934L930.39 458.007L930.437 462.766L929.656 462.694C929.557 462.122 929.373 461.65 929.102 461.28L922.903 461.342ZM917.303 459.458C918.13 459.45 918.547 459.825 918.555 460.585C918.562 461.332 918.153 461.709 917.326 461.718C916.486 461.726 916.062 461.357 916.055 460.61C916.047 459.85 916.463 459.466 917.303 459.458ZM922.883 455.445C922.35 455.451 921.991 455.567 921.807 455.796C921.609 456.011 921.5 456.399 921.479 456.959L920.838 456.906C920.782 456.613 920.533 455.735 920.092 454.273L920.288 453.891L921.626 453.678C920.592 452.941 920.069 452.027 920.058 450.933C920.047 449.84 920.305 448.997 920.833 448.405C921.347 447.814 922.071 447.513 923.004 447.504L928.964 447.444C929.214 447.108 929.402 446.606 929.529 445.938L930.269 446.011L930.317 450.751L929.576 450.698C929.491 450.165 929.293 449.694 928.982 449.284L923.222 449.342C921.796 449.356 921.089 449.976 921.101 451.203C921.106 451.696 921.277 452.168 921.615 452.618C921.953 453.068 922.39 453.397 922.925 453.605L929.025 453.544C929.288 453.181 929.476 452.679 929.59 452.038L930.33 452.11L930.378 456.87L929.597 456.798C929.498 456.226 929.314 455.754 929.043 455.384L922.883 455.445ZM923.594 444.543C921.194 444.567 919.981 443.259 919.955 440.619C919.945 439.659 920.111 438.864 920.451 438.234C920.286 437.702 920.003 437.438 919.603 437.442C919.283 437.445 919.025 437.648 918.829 438.05C918.616 438.052 918.441 437.961 918.306 437.775C918.171 437.59 918.102 437.344 918.099 437.037C918.096 436.717 918.193 436.456 918.391 436.254C918.576 436.052 918.828 435.95 919.148 435.947C920.028 435.938 920.66 436.438 921.043 437.448C921.651 436.908 922.482 436.633 923.535 436.623C924.575 436.612 925.412 436.957 926.045 437.658C926.679 438.358 927.002 439.321 927.014 440.548L927.017 440.848L928.368 441.935C928.688 441.918 928.907 441.789 929.025 441.548C929.142 441.293 929.205 440.899 929.213 440.366L929.204 439.466C929.19 438.133 929.434 437.157 929.934 436.539C930.435 435.907 931.078 435.587 931.865 435.579C933.865 435.559 934.88 437.069 934.91 440.109C934.926 441.629 934.691 442.778 934.205 443.556C933.733 444.321 933.103 444.707 932.316 444.715C931.543 444.723 930.982 444.609 930.633 444.372C930.297 444.135 929.953 443.705 929.6 443.082C929.257 443.406 928.785 443.571 928.185 443.577L926.907 441.809C926.716 442.665 926.329 443.335 925.747 443.821C925.165 444.293 924.448 444.534 923.594 444.543ZM925.53 442.103C925.94 441.779 926.142 441.264 926.135 440.557C926.127 439.85 925.916 439.346 925.499 439.043C925.083 438.727 924.408 438.574 923.475 438.583C922.541 438.593 921.863 438.76 921.44 439.084C921.016 439.395 920.808 439.904 920.815 440.61C920.822 441.317 921.04 441.828 921.47 442.144C921.9 442.446 922.581 442.593 923.515 442.583C924.448 442.574 925.12 442.414 925.53 442.103ZM930.209 439.956L930.227 441.796C930.674 442.445 931.244 442.766 931.937 442.759C933.35 442.745 934.048 441.871 934.031 440.138C934.013 438.391 933.298 437.525 931.885 437.539C930.751 437.551 930.193 438.356 930.209 439.956ZM928.842 425.341L928.796 420.741C928.474 420.491 928.058 420.309 927.551 420.194C927.043 420.066 926.769 419.995 926.728 419.982L926.84 419.121L930.005 419.629L930.102 429.289L929.301 429.177C929.199 428.351 929.006 427.706 928.721 427.243L917.922 427.351C917.66 427.833 917.48 428.522 917.382 429.416L916.582 429.324L916.522 423.405L917.323 423.517C917.425 424.342 917.618 424.987 917.903 425.451L928.842 425.341ZM930.119 415.08C930.128 415.933 929.921 416.602 929.5 417.086C929.064 417.557 928.42 417.797 927.567 417.805C926.7 417.814 925.997 417.495 925.457 416.847C924.917 416.185 924.594 415.222 924.488 413.956L924.351 412.257L922.591 412.275C921.871 412.282 921.353 412.434 921.035 412.731C920.705 413.014 920.543 413.469 920.549 414.096C920.561 415.229 920.893 415.792 921.546 415.786C921.906 415.782 922.171 415.559 922.339 415.118C923.019 415.111 923.364 415.521 923.372 416.347C923.376 416.721 923.265 417.022 923.041 417.251C922.816 417.48 922.518 417.596 922.144 417.6C921.398 417.607 920.808 417.3 920.375 416.677C919.929 416.042 919.7 415.171 919.689 414.064C919.678 412.944 919.929 412.062 920.442 411.417C920.943 410.771 921.653 410.444 922.573 410.435L928.592 410.375C928.842 410.039 929.031 409.537 929.157 408.869L929.898 408.942L929.928 411.922L928.97 412.151C929.725 412.93 930.108 413.906 930.119 415.08ZM927.468 415.906C928.641 415.895 929.223 415.435 929.214 414.529C929.207 413.809 928.786 413.04 927.951 412.221L925.231 412.249L925.387 413.867C925.447 414.507 925.665 415.011 926.042 415.381C926.419 415.737 926.894 415.912 927.468 415.906ZM929.877 406.886L917.918 407.005C917.465 407.01 917.153 407.133 916.982 407.375C916.797 407.603 916.694 407.984 916.673 408.518L916.033 408.464C915.934 407.919 915.677 406.968 915.264 405.612L915.48 405.19L921.099 405.133C920.094 404.57 919.585 403.748 919.575 402.669C919.56 401.255 920.01 400.217 920.924 399.555C921.837 398.892 923.087 398.553 924.673 398.537C926.247 398.521 927.524 398.895 928.505 399.659C929.486 400.422 929.984 401.531 929.998 402.984C930.007 403.877 929.662 404.694 928.963 405.435C929.258 405.632 929.56 405.775 929.867 405.866L929.877 406.886ZM925.439 405.09L928.019 405.064C928.731 404.284 929.084 403.6 929.079 403.013C929.073 402.427 928.948 401.961 928.705 401.617C928.448 401.273 928.085 401.023 927.617 400.868C926.841 400.609 926 400.484 925.093 400.493C924.186 400.502 923.52 400.529 923.094 400.573C922.668 400.617 922.235 400.708 921.796 400.846C920.919 401.122 920.485 401.726 920.495 402.659C920.505 403.713 921.039 404.401 922.095 404.723C922.965 404.981 924.079 405.104 925.439 405.09Z" fill="black"/>
<rect x="748.5" y="1.5" width="89" height="196" fill="#FA8D50" stroke="#F5F5F5" stroke-width="3"/>
<path d="M771 108L771.12 107.2C771.827 107.107 772.373 106.92 772.76 106.64L777.2 94.46H778.84L783.64 106.66C783.973 106.913 784.487 107.093 785.18 107.2L785.08 108H779.38L779.5 107.2C780.353 107.107 780.987 106.927 781.4 106.66L780.18 103.46H775.32L774.18 106.68C774.62 106.92 775.287 107.093 776.18 107.2L776.08 108H771ZM775.72 102.34H779.76L777.66 96.86L775.72 102.34ZM786.2 108V106.78C788.586 104.727 790.226 103.1 791.12 101.9C792.026 100.687 792.48 99.5267 792.48 98.42C792.48 96.78 791.753 95.96 790.3 95.96C789.66 95.96 789.146 96.1533 788.76 96.54C788.373 96.9133 788.18 97.3533 788.18 97.86C788.18 98.3533 788.326 98.7933 788.62 99.18C788.34 99.4867 787.993 99.64 787.58 99.64C787.166 99.64 786.833 99.5133 786.58 99.26C786.34 99.0067 786.22 98.6067 786.22 98.06C786.22 97.2467 786.62 96.5267 787.42 95.9C788.233 95.2733 789.24 94.96 790.44 94.96C791.64 94.96 792.613 95.2867 793.36 95.94C794.106 96.5933 794.48 97.48 794.48 98.6C794.48 99.7067 794.02 100.867 793.1 102.08C792.18 103.293 790.633 104.74 788.46 106.42H795V108H786.2ZM799.424 105.68C799.837 106.6 800.624 107.06 801.784 107.06C802.944 107.06 803.73 106.6 804.144 105.68C804.557 104.76 804.764 103.38 804.764 101.54C804.764 99.6867 804.557 98.3067 804.144 97.4C803.73 96.48 802.944 96.02 801.784 96.02C800.624 96.02 799.837 96.48 799.424 97.4C799.01 98.3067 798.804 99.6867 798.804 101.54C798.804 103.38 799.01 104.76 799.424 105.68ZM805.484 106.38C804.657 107.54 803.424 108.12 801.784 108.12C800.144 108.12 798.91 107.54 798.084 106.38C797.257 105.207 796.844 103.587 796.844 101.52C796.844 99.4533 797.257 97.8467 798.084 96.7C798.91 95.54 800.144 94.96 801.784 94.96C803.424 94.96 804.657 95.54 805.484 96.7C806.31 97.8467 806.724 99.4533 806.724 101.52C806.724 103.587 806.31 105.207 805.484 106.38Z" fill="black"/>
<rect x="1" y="362" width="107" height="109" fill="#FA8D50" stroke="#F5F5F5" stroke-width="2"/>
<path d="M39.0116 400.697C42.2516 400.697 43.8716 401.824 43.8716 404.077C43.8716 405.571 43.085 406.551 41.5116 407.017C42.4316 407.297 43.1516 407.731 43.6716 408.317C44.1916 408.891 44.4516 409.584 44.4516 410.397C44.4516 411.571 44.0183 412.504 43.1516 413.197C42.2983 413.877 41.105 414.217 39.5716 414.217H33.2916L33.4116 413.417C34.2383 413.324 34.885 413.137 35.3516 412.857V402.057C34.885 401.777 34.1983 401.591 33.2916 401.497L33.3916 400.697H39.0116ZM37.2516 413.157H39.5716C40.5316 413.157 41.2583 412.924 41.7516 412.457C42.245 411.991 42.4916 411.311 42.4916 410.417C42.4916 409.524 42.1983 408.837 41.6116 408.357C41.0383 407.864 40.1783 407.617 39.0316 407.617H37.2516V413.157ZM37.2516 406.557H39.0516C40.065 406.557 40.805 406.357 41.2716 405.957C41.7516 405.557 41.9916 404.944 41.9916 404.117C41.9916 403.291 41.7516 402.684 41.2716 402.297C40.7916 401.897 40.0316 401.697 38.9916 401.697C38.5916 401.697 38.0116 401.717 37.2516 401.757V406.557ZM46.4595 414.217V412.997C48.8461 410.944 50.4861 409.317 51.3795 408.117C52.2861 406.904 52.7395 405.744 52.7395 404.637C52.7395 402.997 52.0128 402.177 50.5595 402.177C49.9195 402.177 49.4061 402.371 49.0195 402.757C48.6328 403.131 48.4395 403.571 48.4395 404.077C48.4395 404.571 48.5861 405.011 48.8795 405.397C48.5995 405.704 48.2528 405.857 47.8395 405.857C47.4261 405.857 47.0928 405.731 46.8395 405.477C46.5995 405.224 46.4795 404.824 46.4795 404.277C46.4795 403.464 46.8795 402.744 47.6795 402.117C48.4928 401.491 49.4995 401.177 50.6995 401.177C51.8995 401.177 52.8728 401.504 53.6195 402.157C54.3661 402.811 54.7395 403.697 54.7395 404.817C54.7395 405.924 54.2795 407.084 53.3595 408.297C52.4395 409.511 50.8928 410.957 48.7195 412.637H55.2595V414.217H46.4595ZM62.7035 409.777V406.297C63.0502 406.284 63.3502 406.197 63.6035 406.037C63.8702 405.877 64.0435 405.664 64.1235 405.397H64.6035V409.757L66.4635 410.157V410.977H64.5235V414.197H62.7035V410.977H56.6635L56.5035 410.257L60.9235 401.377C61.7502 401.377 62.3502 401.544 62.7235 401.877L58.2035 409.777H62.7035Z" fill="black"/>
<path d="M906 109L906.12 108.2C906.827 108.107 907.373 107.92 907.76 107.64L912.2 95.46H913.84L918.64 107.66C918.973 107.913 919.487 108.093 920.18 108.2L920.08 109H914.38L914.5 108.2C915.353 108.107 915.987 107.927 916.4 107.66L915.18 104.46H910.32L909.18 107.68C909.62 107.92 910.287 108.093 911.18 108.2L911.08 109H906ZM910.72 103.34H914.76L912.66 97.86L910.72 103.34ZM921.2 109V107.78C923.586 105.727 925.226 104.1 926.12 102.9C927.026 101.687 927.48 100.527 927.48 99.42C927.48 97.78 926.753 96.96 925.3 96.96C924.66 96.96 924.146 97.1533 923.76 97.54C923.373 97.9133 923.18 98.3533 923.18 98.86C923.18 99.3533 923.326 99.7933 923.62 100.18C923.34 100.487 922.993 100.64 922.58 100.64C922.166 100.64 921.833 100.513 921.58 100.26C921.34 100.007 921.22 99.6067 921.22 99.06C921.22 98.2467 921.62 97.5267 922.42 96.9C923.233 96.2733 924.24 95.96 925.44 95.96C926.64 95.96 927.613 96.2867 928.36 96.94C929.106 97.5933 929.48 98.48 929.48 99.6C929.48 100.707 929.02 101.867 928.1 103.08C927.18 104.293 925.633 105.74 923.46 107.42H930V109H921.2ZM934.624 98.1H931.784V97.18C933.224 97.0333 934.557 96.64 935.784 96L936.504 96.28V107.64C937.01 107.907 937.897 108.113 939.164 108.26L939.084 109H931.684L931.744 108.26C932.997 108.127 933.957 107.92 934.624 107.64V98.1Z" fill="black"/>
</svg>
