<svg width="1095" height="714" viewBox="0 0 1095 714" fill="none" xmlns="http://www.w3.org/2000/svg">
<path d="M1022.43 597.596L678.5 600.656L678.5 415.038L678.5 414.038L677.5 414.038L1.17438 414.038L1.00018 2.41961L599.501 2.00429L1022.26 2.00408L1022.43 414.622L1022.43 597.596Z" fill="#FA8D50" stroke="white" stroke-width="2"/>
<rect x="0.999534" y="-1.00037" width="342.562" height="296.011" transform="matrix(-0.000466226 -1 1 -0.000369229 2.4989 346.409)" fill="#FA8D50" stroke="white" stroke-width="2"/>
<path d="M348.58 167.19L299.394 167.19L299.394 2.74317L399.094 2.70262L399.094 167.19L348.58 167.19Z" fill="#FA8D50" stroke="white" stroke-width="2"/>
<rect x="0.999461" y="-1.00032" width="177.092" height="140.686" transform="matrix(-0.000538843 -1 1 -0.00031947 300.288 346.591)" fill="#FA8D50" stroke="white" stroke-width="2"/>
<rect x="0.999461" y="-1.00032" width="177.092" height="140.831" transform="matrix(-0.000538843 -1 1 -0.00031947 441.549 346.518)" fill="#FA8D50" stroke="white" stroke-width="2"/>
<rect x="0.999461" y="-1.00032" width="166.523" height="307.9" transform="matrix(-0.000538843 -1 1 -0.00031947 716.028 582.19)" fill="#FA8D50" stroke="white" stroke-width="2"/>
<rect x="0.999533" y="-1.00037" width="342.463" height="307.887" transform="matrix(-0.000466643 -1 1 -0.000368899 715.71 346.022)" fill="#FA8D50" stroke="white" stroke-width="2"/>
<rect x="0.999534" y="-1.00037" width="164.601" height="91.976" transform="matrix(-0.000466226 -1 1 -0.000369229 402.164 168.298)" fill="#FA8D50" stroke="white" stroke-width="2"/>
<rect x="0.999577" y="-1.00041" width="164.336" height="89.004" transform="matrix(-0.000423209 -1 1 -0.000406759 493.629 168)" fill="#FA8D50" stroke="white" stroke-width="2"/>
<path d="M137.844 167.712C140.112 167.712 141.246 168.501 141.246 170.078C141.246 171.123 140.695 171.809 139.594 172.136C140.238 172.332 140.742 172.635 141.106 173.046C141.47 173.447 141.652 173.933 141.652 174.502C141.652 175.323 141.349 175.977 140.742 176.462C140.145 176.938 139.309 177.176 138.236 177.176H133.84L133.924 176.616C134.503 176.551 134.955 176.42 135.282 176.224V168.664C134.955 168.468 134.475 168.337 133.84 168.272L133.91 167.712H137.844ZM136.612 176.434H138.236C138.908 176.434 139.417 176.271 139.762 175.944C140.107 175.617 140.28 175.141 140.28 174.516C140.28 173.891 140.075 173.41 139.664 173.074C139.263 172.729 138.661 172.556 137.858 172.556H136.612V176.434ZM136.612 171.814H137.872C138.581 171.814 139.099 171.674 139.426 171.394C139.762 171.114 139.93 170.685 139.93 170.106C139.93 169.527 139.762 169.103 139.426 168.832C139.09 168.552 138.558 168.412 137.83 168.412C137.55 168.412 137.144 168.426 136.612 168.454V171.814ZM144.849 175.552C145.139 176.196 145.689 176.518 146.501 176.518C147.313 176.518 147.864 176.196 148.153 175.552C148.443 174.908 148.587 173.942 148.587 172.654C148.587 171.357 148.443 170.391 148.153 169.756C147.864 169.112 147.313 168.79 146.501 168.79C145.689 168.79 145.139 169.112 144.849 169.756C144.56 170.391 144.415 171.357 144.415 172.654C144.415 173.942 144.56 174.908 144.849 175.552ZM149.091 176.042C148.513 176.854 147.649 177.26 146.501 177.26C145.353 177.26 144.49 176.854 143.911 176.042C143.333 175.221 143.043 174.087 143.043 172.64C143.043 171.193 143.333 170.069 143.911 169.266C144.49 168.454 145.353 168.048 146.501 168.048C147.649 168.048 148.513 168.454 149.091 169.266C149.67 170.069 149.959 171.193 149.959 172.64C149.959 174.087 149.67 175.221 149.091 176.042ZM152.504 168.132C153.316 168.16 154.035 168.174 154.66 168.174C155.285 168.174 155.934 168.165 156.606 168.146L156.9 168.37C156.881 168.734 156.844 169.023 156.788 169.238H153.008L152.756 171.828C153.353 171.567 153.941 171.436 154.52 171.436C155.425 171.436 156.139 171.683 156.662 172.178C157.194 172.673 157.46 173.363 157.46 174.25C157.46 175.127 157.171 175.855 156.592 176.434C156.023 177.013 155.29 177.302 154.394 177.302C153.498 177.302 152.77 177.12 152.21 176.756C151.65 176.392 151.37 175.925 151.37 175.356C151.37 175.067 151.445 174.843 151.594 174.684C151.753 174.516 151.967 174.432 152.238 174.432C152.509 174.432 152.747 174.516 152.952 174.684C152.868 174.88 152.826 175.081 152.826 175.286C152.826 175.669 152.966 175.986 153.246 176.238C153.535 176.481 153.904 176.602 154.352 176.602C155.547 176.602 156.144 175.827 156.144 174.278C156.144 173.606 155.981 173.088 155.654 172.724C155.327 172.36 154.851 172.178 154.226 172.178C153.61 172.178 152.947 172.379 152.238 172.78L151.832 172.36L152.224 168.356L152.504 168.132Z" fill="black"/>
<path d="M371.043 288.959L362.562 291.366C362.392 291.703 362.275 292.175 362.211 292.782L361.65 292.714L361.57 288.487L362.131 288.568C362.207 289.137 362.347 289.585 362.549 289.91L369.208 288.17L361.617 285.827L361.602 285.029L368.975 282.544L362.376 280.84C362.195 281.177 362.074 281.658 362.011 282.284L361.45 282.216L361.377 278.409L361.939 278.49C362.016 279.096 362.155 279.558 362.357 279.874L370.914 282.199L370.935 283.262L363.881 285.62L371.022 287.853L371.043 288.959ZM367.276 277.142C368.321 277.137 369.074 276.993 369.536 276.711C369.988 276.429 370.208 275.975 370.196 275.35C370.184 274.715 369.946 274.259 369.484 273.982C369.012 273.704 368.258 273.568 367.222 273.573C366.176 273.578 365.428 273.721 364.976 274.003C364.514 274.286 364.29 274.744 364.302 275.379C364.314 276.013 364.551 276.469 365.014 276.747C365.476 277.015 366.23 277.147 367.276 277.142ZM369.927 273.028C370.553 273.547 370.876 274.32 370.896 275.347C370.915 276.373 370.622 277.154 370.016 277.689C369.401 278.214 368.501 278.48 367.315 278.486C366.121 278.491 365.21 278.235 364.584 277.715C363.949 277.186 363.621 276.408 363.602 275.382C363.582 274.355 363.88 273.579 364.495 273.054C365.101 272.519 366.002 272.249 367.196 272.243C368.382 272.237 369.292 272.499 369.927 273.028ZM365.447 270.105C365.074 270.107 364.823 270.187 364.696 270.347C364.559 270.497 364.485 270.768 364.473 271.16L364.025 271.12C363.983 270.915 363.804 270.3 363.485 269.275L363.62 269.008L364.667 268.849C363.864 268.321 363.456 267.721 363.443 267.049C363.436 266.685 363.537 266.372 363.747 266.11C363.956 265.838 364.225 265.701 364.551 265.7C364.869 265.698 365.122 265.772 365.311 265.92C365.501 266.059 365.598 266.236 365.602 266.451C365.606 266.656 365.567 266.833 365.486 266.983C365.405 267.133 365.294 267.227 365.155 267.265C365.05 267.162 364.91 267.112 364.732 267.113C364.424 267.114 364.273 267.26 364.278 267.549C364.284 267.838 364.504 268.122 364.939 268.4C365.373 268.677 365.829 268.815 366.305 268.813L369.735 268.796C369.916 268.516 370.044 268.118 370.118 267.605L370.637 267.658L370.703 271.129L370.156 271.076C370.083 270.675 369.951 270.345 369.759 270.084L365.447 270.105ZM362.306 263.983C361.933 263.984 361.682 264.065 361.555 264.224C361.418 264.374 361.344 264.645 361.332 265.037L360.884 264.997C360.811 264.615 360.626 263.949 360.327 262.998L360.476 262.704L366.37 262.675L364.261 260.74C364.061 260.545 363.778 260.392 363.412 260.282L363.373 258.266L363.821 258.222C363.862 258.903 364.091 259.438 364.509 259.828L365.921 261.165L369.519 258.95C369.718 258.623 369.854 258.169 369.927 257.59L370.446 257.644L370.487 259.8L366.819 262.015L367.504 262.67L369.618 262.659C369.8 262.407 369.928 262.056 370.004 261.608L370.523 261.661L370.586 264.993L370.039 264.939C369.966 264.538 369.834 264.208 369.642 263.947L362.306 263.983ZM366.803 252.359C367.848 252.354 368.602 252.211 369.063 251.929C369.515 251.646 369.735 251.193 369.723 250.567C369.711 249.933 369.474 249.477 369.011 249.199C368.539 248.921 367.785 248.785 366.749 248.79C365.704 248.795 364.955 248.939 364.503 249.221C364.042 249.503 363.817 249.961 363.829 250.596C363.841 251.23 364.079 251.687 364.541 251.964C365.004 252.233 365.758 252.364 366.803 252.359ZM369.455 248.245C370.081 248.765 370.404 249.538 370.423 250.564C370.443 251.591 370.15 252.371 369.544 252.906C368.928 253.432 368.028 253.697 366.843 253.703C365.648 253.709 364.738 253.452 364.112 252.932C363.476 252.403 363.149 251.626 363.129 250.599C363.11 249.573 363.407 248.797 364.023 248.271C364.629 247.736 365.529 247.466 366.724 247.46C367.909 247.454 368.819 247.716 369.455 248.245ZM363.908 245.16L363.929 246.279L363.412 246.352C363.319 245.848 363.222 245.452 363.124 245.163L362.298 245.167C361.458 245.171 360.782 245.002 360.272 244.659C359.752 244.316 359.485 243.762 359.47 242.997C359.46 242.503 359.588 242.073 359.851 241.707C360.115 241.333 360.424 241.145 360.779 241.143C361.133 241.141 361.396 241.219 361.567 241.377C361.729 241.535 361.812 241.707 361.815 241.894C361.823 242.295 361.631 242.534 361.241 242.611C361.05 242.425 360.871 242.332 360.703 242.333C360.535 242.334 360.397 242.405 360.287 242.545C360.178 242.676 360.125 242.859 360.13 243.092C360.142 243.745 360.545 244.07 361.338 244.066C361.497 244.065 361.781 244.036 362.191 243.978C362.6 243.911 362.903 243.877 363.099 243.876L363.069 242.308L363.853 242.304L363.883 243.872L369.259 243.846C369.422 243.612 369.55 243.228 369.643 242.696L370.162 242.75L370.227 246.179L369.68 246.126C369.607 245.725 369.475 245.394 369.283 245.134L363.908 245.16ZM362.728 230.297C362.777 230.436 362.803 230.567 362.805 230.688C362.808 230.809 362.805 230.894 362.796 230.94C362.192 231.074 361.688 231.31 361.284 231.647L361.345 234.867L364.831 234.85L364.636 232.681C364.6 232.28 364.263 232.002 363.626 231.846L363.617 231.37L366.557 231.356L366.566 231.832C365.868 231.975 365.51 232.262 365.49 232.691L365.377 234.847L369.059 234.83C369.24 234.539 369.362 234.058 369.423 233.386L369.985 233.453L370.064 237.597L369.502 237.515C369.415 236.853 369.276 236.401 369.084 236.159L361.524 236.196C361.344 236.533 361.223 237.014 361.16 237.64L360.599 237.572L360.462 230.434L362.728 230.297ZM364.649 228.263C364.276 228.265 364.026 228.345 363.898 228.505C363.761 228.655 363.687 228.926 363.675 229.318L363.227 229.278C363.185 229.073 363.006 228.458 362.687 227.433L362.822 227.166L363.869 227.007C363.066 226.479 362.658 225.879 362.645 225.207C362.638 224.843 362.739 224.53 362.949 224.268C363.159 223.996 363.427 223.859 363.753 223.858C364.071 223.856 364.324 223.93 364.514 224.078C364.703 224.217 364.8 224.394 364.804 224.609C364.808 224.814 364.769 224.991 364.688 225.141C364.607 225.291 364.496 225.385 364.357 225.423C364.253 225.32 364.112 225.27 363.934 225.271C363.626 225.272 363.475 225.418 363.481 225.707C363.486 225.996 363.706 226.28 364.141 226.558C364.575 226.835 365.031 226.973 365.507 226.971L368.937 226.954C369.118 226.674 369.246 226.276 369.32 225.763L369.839 225.816L369.905 229.287L369.358 229.234C369.285 228.833 369.153 228.503 368.961 228.242L364.649 228.263ZM364.504 222.098C364.13 222.1 363.88 222.181 363.752 222.34C363.615 222.49 363.541 222.761 363.53 223.153L363.081 223.113C363.008 222.731 362.823 222.064 362.525 221.114L362.673 220.819L368.819 220.789C369.001 220.537 369.13 220.186 369.205 219.738L369.724 219.791L369.788 223.123L369.241 223.069C369.168 222.668 369.035 222.338 368.844 222.077L364.504 222.098ZM360.572 220.759C361.151 220.757 361.445 221.021 361.455 221.553C361.465 222.076 361.181 222.338 360.602 222.341C360.014 222.344 359.715 222.084 359.705 221.561C359.695 221.03 359.984 220.762 360.572 220.759ZM366.026 217.502L366.25 217.501C367.408 217.495 368.184 217.337 368.579 217.027C368.947 216.736 369.125 216.264 369.112 215.611C369.1 214.948 368.814 214.385 368.254 213.921L368.721 213.443C369.395 214.009 369.741 214.773 369.759 215.734C369.78 216.863 369.483 217.672 368.867 218.16C368.251 218.639 367.359 218.881 366.193 218.887C365.026 218.892 364.12 218.635 363.476 218.116C362.822 217.596 362.485 216.842 362.467 215.853C362.448 214.864 362.696 214.172 363.211 213.778C363.726 213.383 364.502 213.169 365.537 213.136L365.949 213.442L366.026 217.502ZM363.083 215.878C363.103 216.942 363.898 217.484 365.466 217.504L365.297 214.495C364.513 214.499 363.945 214.6 363.595 214.798C363.244 214.995 363.073 215.355 363.083 215.878ZM364.323 211.164C363.95 211.166 363.699 211.246 363.572 211.405C363.435 211.555 363.361 211.826 363.349 212.218L362.901 212.179C362.859 211.974 362.68 211.358 362.361 210.333L362.496 210.067L363.432 209.922C362.703 209.403 362.331 208.761 362.317 207.996C362.302 207.231 362.478 206.642 362.843 206.229C363.199 205.817 363.704 205.609 364.357 205.606L368.529 205.586C368.702 205.352 368.831 205.001 368.915 204.534L369.434 204.588L369.498 207.905L368.979 207.866C368.916 207.493 368.774 207.162 368.554 206.874L364.522 206.893C363.523 206.898 363.032 207.33 363.048 208.188C363.055 208.534 363.178 208.864 363.417 209.18C363.657 209.497 363.965 209.728 364.341 209.876L368.611 209.855C368.793 209.602 368.921 209.252 368.997 208.804L369.516 208.857L369.579 212.188L369.032 212.135C368.959 211.734 368.827 211.403 368.635 211.143L364.323 211.164ZM369.465 201.077C369.5 202.869 368.355 203.771 366.031 203.782C364.799 203.788 363.855 203.508 363.2 202.942C362.536 202.375 362.194 201.556 362.173 200.483C362.166 200.091 362.242 199.68 362.402 199.25L361.072 199.256C360.699 199.258 360.448 199.338 360.321 199.498C360.183 199.648 360.109 199.919 360.098 200.311L359.649 200.271C359.577 199.889 359.391 199.222 359.093 198.272L359.241 197.977L368.383 197.933C368.565 197.68 368.694 197.329 368.769 196.881L369.288 196.935L369.33 199.104L368.464 199.22C369.116 199.628 369.45 200.247 369.465 201.077ZM365.79 199.233L363.102 199.246C362.903 199.602 362.809 200.055 362.82 200.606C362.83 201.156 363.114 201.603 363.671 201.945C364.229 202.288 365.002 202.457 365.991 202.452C366.971 202.447 367.692 202.323 368.154 202.078C368.607 201.833 368.828 201.454 368.819 200.941C368.797 199.793 367.787 199.224 365.79 199.233ZM368.515 194.563C368.611 194.217 368.655 193.844 368.648 193.442C368.64 193.041 368.522 192.715 368.293 192.464C368.055 192.213 367.782 192.089 367.474 192.09C367.166 192.092 366.92 192.186 366.737 192.374C366.545 192.552 366.409 192.777 366.33 193.048C366.242 193.319 366.14 193.618 366.025 193.945C365.91 194.263 365.789 194.557 365.664 194.829C365.538 195.1 365.333 195.33 365.047 195.518C364.752 195.696 364.394 195.787 363.974 195.789C363.405 195.792 362.948 195.57 362.603 195.123C362.249 194.668 362.066 194.095 362.052 193.404C362.039 192.704 362.173 192.13 362.454 191.681C362.725 191.231 363.066 191.006 363.477 191.004C363.999 191.001 364.265 191.233 364.274 191.7C364.281 192.054 364.151 192.321 363.883 192.5C363.75 192.342 363.575 192.263 363.361 192.264C363.137 192.265 362.962 192.378 362.835 192.603C362.709 192.818 362.649 193.103 362.656 193.457C362.662 193.803 362.761 194.091 362.952 194.324C363.134 194.547 363.388 194.658 363.714 194.656C364.041 194.655 364.309 194.527 364.519 194.274C364.729 194.012 364.891 193.699 365.005 193.334C365.11 192.97 365.229 192.605 365.363 192.24C365.486 191.867 365.695 191.553 365.989 191.299C366.282 191.037 366.658 190.904 367.115 190.902C367.796 190.899 368.328 191.13 368.71 191.594C369.093 192.059 369.292 192.716 369.308 193.565C369.315 193.911 369.266 194.312 369.163 194.77C369.05 195.218 368.921 195.555 368.776 195.78L366.914 195.789L366.801 194.977C367.565 194.908 368.136 194.77 368.515 194.563Z" fill="black"/>
<path d="M512.903 276.504L505.932 276.538L513.912 279.467L513.929 280.363L505.939 283.523L513.037 283.489C513.217 283.152 513.338 282.671 513.401 282.045L513.963 282.112L514.035 285.892L513.473 285.81C513.397 285.232 513.257 284.78 513.055 284.455L505.495 284.491C505.315 284.828 505.193 285.309 505.131 285.935L504.569 285.867L504.51 282.76L512.055 279.714L504.397 276.853L504.339 273.774L504.9 273.855C504.977 274.433 505.116 274.885 505.318 275.211L512.878 275.174C513.058 274.837 513.18 274.356 513.243 273.731L513.804 273.798L513.882 277.885L513.32 277.804C513.244 277.226 513.105 276.774 512.902 276.448L512.903 276.504ZM510.101 271.222L510.325 271.221C511.482 271.216 512.258 271.058 512.654 270.748C513.022 270.457 513.199 269.985 513.187 269.332C513.174 268.669 512.888 268.106 512.328 267.642L512.795 267.164C513.469 267.73 513.815 268.493 513.833 269.454C513.855 270.584 513.557 271.392 512.941 271.881C512.325 272.36 511.434 272.602 510.267 272.607C509.1 272.613 508.195 272.356 507.55 271.837C506.896 271.317 506.56 270.563 506.541 269.574C506.522 268.585 506.77 267.893 507.285 267.498C507.8 267.104 508.576 266.89 509.611 266.857L510.023 267.163L510.101 271.222ZM507.157 269.599C507.178 270.663 507.972 271.205 509.541 271.225L509.371 268.216C508.587 268.22 508.02 268.321 507.669 268.518C507.318 268.716 507.147 269.076 507.157 269.599ZM511.884 264.868L507.334 264.89L507.357 266.121L506.937 266.124C506.582 265.136 505.959 264.495 505.066 264.201L505.055 263.599L506.525 263.592L506.492 261.884L507.276 261.88L507.309 263.602L511.971 263.579C512.344 263.578 512.609 263.534 512.767 263.45C512.924 263.365 512.999 263.173 512.994 262.875C512.988 262.576 512.884 262.264 512.682 261.938L513.124 261.642C513.506 262.107 513.703 262.647 513.715 263.263C513.727 263.879 513.595 264.3 513.319 264.525C513.034 264.75 512.556 264.864 511.884 264.868ZM509.875 259.412L510.099 259.411C511.257 259.405 512.033 259.248 512.428 258.938C512.796 258.647 512.974 258.174 512.962 257.521C512.949 256.859 512.663 256.295 512.103 255.832L512.57 255.353C513.244 255.919 513.59 256.683 513.608 257.644C513.629 258.773 513.332 259.582 512.716 260.07C512.1 260.549 511.208 260.791 510.042 260.797C508.875 260.803 507.969 260.546 507.325 260.026C506.671 259.507 506.334 258.753 506.316 257.763C506.297 256.774 506.545 256.082 507.06 255.688C507.575 255.293 508.351 255.08 509.386 255.047L509.798 255.353L509.875 259.412ZM506.932 257.788C506.952 258.852 507.747 259.394 509.315 259.415L509.146 256.406C508.362 256.41 507.794 256.51 507.444 256.708C507.093 256.906 506.922 257.266 506.932 257.788ZM508.171 253.018C507.798 253.02 507.547 253.101 507.42 253.26C507.283 253.41 507.208 253.681 507.197 254.073L506.748 254.033C506.707 253.828 506.528 253.213 506.209 252.188L506.344 251.921L507.391 251.762C506.588 251.234 506.18 250.634 506.167 249.962C506.16 249.598 506.261 249.285 506.471 249.023C506.68 248.751 506.949 248.615 507.275 248.613C507.593 248.611 507.846 248.685 508.035 248.833C508.225 248.972 508.321 249.149 508.326 249.364C508.33 249.569 508.291 249.747 508.21 249.896C508.129 250.046 508.018 250.14 507.879 250.178C507.774 250.076 507.633 250.025 507.456 250.026C507.148 250.027 506.997 250.173 507.002 250.462C507.008 250.751 507.228 251.035 507.663 251.313C508.097 251.591 508.553 251.729 509.029 251.726L512.459 251.71C512.64 251.429 512.768 251.032 512.842 250.518L513.361 250.571L513.427 254.043L512.88 253.989C512.807 253.588 512.675 253.258 512.483 252.997L508.171 253.018ZM513.384 245.914C513.396 246.512 513.255 246.979 512.963 247.316C512.661 247.644 512.212 247.81 511.614 247.813C511.008 247.816 510.513 247.589 510.131 247.134C509.749 246.669 509.517 245.994 509.435 245.108L509.328 243.918L508.096 243.924C507.592 243.927 507.23 244.031 507.01 244.237C506.78 244.434 506.67 244.752 506.678 245.191C506.693 245.984 506.929 246.38 507.387 246.377C507.639 246.376 507.822 246.221 507.938 245.913C508.414 245.91 508.657 246.199 508.668 246.777C508.673 247.038 508.598 247.249 508.442 247.408C508.287 247.568 508.078 247.648 507.817 247.649C507.294 247.652 506.879 247.434 506.572 246.997C506.256 246.551 506.09 245.94 506.075 245.166C506.06 244.382 506.231 243.765 506.586 243.315C506.932 242.866 507.427 242.639 508.071 242.636L512.285 242.616C512.458 242.382 512.587 242.031 512.671 241.564L513.19 241.618L513.23 243.703L512.561 243.861C513.094 244.409 513.369 245.093 513.384 245.914ZM511.533 246.483C512.354 246.479 512.759 246.16 512.747 245.526C512.737 245.022 512.437 244.482 511.848 243.906L509.944 243.915L510.063 245.049C510.109 245.496 510.265 245.85 510.532 246.11C510.798 246.361 511.132 246.485 511.533 246.483ZM507.893 239.882C507.519 239.884 507.269 239.964 507.141 240.124C507.004 240.274 506.93 240.545 506.919 240.937L506.47 240.897C506.397 240.515 506.212 239.848 505.914 238.898L506.062 238.603L512.208 238.573C512.39 238.32 512.519 237.97 512.594 237.522L513.113 237.575L513.177 240.906L512.63 240.853C512.557 240.452 512.424 240.122 512.233 239.861L507.893 239.882ZM503.961 238.543C504.54 238.54 504.834 238.805 504.844 239.337C504.854 239.859 504.57 240.122 503.991 240.125C503.403 240.128 503.104 239.868 503.094 239.345C503.084 238.813 503.373 238.546 503.961 238.543ZM504.818 235.77C504.445 235.772 504.194 235.852 504.067 236.011C503.929 236.161 503.855 236.432 503.844 236.824L503.395 236.784C503.323 236.402 503.137 235.736 502.839 234.785L502.988 234.491L512.129 234.447C512.311 234.194 512.44 233.843 512.515 233.395L513.034 233.448L513.098 236.78L512.551 236.726C512.478 236.325 512.346 235.995 512.154 235.734L504.818 235.77ZM507.693 227.935C507.32 227.937 507.069 228.017 506.941 228.177C506.804 228.326 506.73 228.597 506.719 228.99L506.27 228.95C506.229 228.745 506.049 228.129 505.731 227.104L505.866 226.838L506.913 226.679C506.109 226.151 505.701 225.551 505.688 224.879C505.682 224.515 505.783 224.202 505.993 223.939C506.202 223.668 506.47 223.531 506.797 223.53C507.114 223.528 507.368 223.602 507.557 223.75C507.746 223.889 507.843 224.066 507.847 224.28C507.851 224.486 507.813 224.663 507.731 224.813C507.65 224.963 507.54 225.057 507.401 225.095C507.296 224.992 507.155 224.942 506.978 224.943C506.67 224.944 506.519 225.089 506.524 225.379C506.53 225.668 506.75 225.952 507.184 226.23C507.619 226.507 508.074 226.645 508.55 226.643L511.98 226.626C512.162 226.345 512.289 225.948 512.364 225.435L512.883 225.488L512.949 228.959L512.402 228.906C512.329 228.505 512.197 228.174 512.005 227.914L507.693 227.935ZM509.263 221.412C510.308 221.407 511.061 221.263 511.523 220.981C511.975 220.699 512.195 220.245 512.183 219.62C512.171 218.985 511.933 218.529 511.471 218.252C510.999 217.974 510.245 217.837 509.209 217.842C508.163 217.848 507.415 217.991 506.963 218.273C506.501 218.555 506.277 219.014 506.289 219.648C506.301 220.283 506.538 220.739 507.001 221.017C507.463 221.285 508.217 221.417 509.263 221.412ZM511.914 217.297C512.54 217.817 512.863 218.59 512.883 219.617C512.902 220.643 512.609 221.424 512.003 221.959C511.388 222.484 510.488 222.75 509.302 222.756C508.108 222.761 507.197 222.504 506.571 221.985C505.936 221.456 505.608 220.678 505.589 219.652C505.569 218.625 505.867 217.849 506.482 217.324C507.088 216.789 507.989 216.518 509.183 216.513C510.369 216.507 511.279 216.769 511.914 217.297ZM509.122 214.017C510.167 214.012 510.92 213.868 511.382 213.586C511.834 213.304 512.054 212.85 512.042 212.225C512.03 211.59 511.792 211.134 511.33 210.856C510.858 210.579 510.104 210.442 509.068 210.447C508.022 210.452 507.274 210.596 506.822 210.878C506.36 211.16 506.136 211.619 506.148 212.253C506.16 212.888 506.397 213.344 506.86 213.622C507.322 213.89 508.076 214.022 509.122 214.017ZM511.773 209.902C512.399 210.422 512.722 211.195 512.742 212.221C512.761 213.248 512.468 214.029 511.862 214.563C511.247 215.089 510.347 215.355 509.161 215.36C507.967 215.366 507.056 215.109 506.43 214.59C505.795 214.061 505.467 213.283 505.448 212.257C505.428 211.23 505.726 210.454 506.341 209.929C506.947 209.394 507.848 209.123 509.042 209.118C510.228 209.112 511.138 209.373 511.773 209.902ZM507.294 207.022C506.921 207.024 506.67 207.104 506.543 207.263C506.406 207.413 506.331 207.684 506.32 208.076L505.871 208.036C505.83 207.831 505.65 207.216 505.332 206.191L505.467 205.925L506.249 205.809C506.154 205.735 506.05 205.642 505.936 205.53C505.821 205.41 505.687 205.205 505.532 204.916C505.377 204.619 505.296 204.32 505.291 204.022C505.273 203.116 505.588 202.471 506.234 202.085C505.568 201.435 505.229 200.779 505.216 200.116C505.204 199.454 505.375 198.912 505.731 198.49C506.087 198.059 506.657 197.842 507.441 197.838L511.431 197.819C511.604 197.584 511.732 197.234 511.817 196.767L512.336 196.82L512.399 200.138L511.88 200.098C511.817 199.725 511.676 199.395 511.456 199.106L507.424 199.126C506.425 199.131 505.933 199.511 505.947 200.267C505.954 200.603 506.086 200.919 506.343 201.217C506.592 201.505 506.861 201.695 507.152 201.787L511.506 201.766C511.679 201.532 511.808 201.181 511.892 200.714L512.411 200.768L512.475 204.085L511.956 204.045C511.893 203.672 511.751 203.342 511.531 203.054L507.499 203.073C506.5 203.078 506.008 203.458 506.022 204.214C506.029 204.55 506.161 204.867 506.419 205.164C506.667 205.452 506.936 205.642 507.228 205.734L511.581 205.713C511.763 205.46 511.892 205.11 511.967 204.661L512.487 204.715L512.55 208.046L512.003 207.993C511.93 207.592 511.798 207.261 511.606 207.001L507.294 207.022Z" fill="black"/>
<path d="M853.91 191.098C852.426 191.098 851.338 190.711 850.648 189.936C849.966 189.161 849.626 187.948 849.626 186.296C849.626 183.067 851.054 181.452 853.91 181.452C855.03 181.452 855.879 181.727 856.458 182.278C856.775 182.586 856.934 182.936 856.934 183.328C856.934 183.72 856.845 184.028 856.668 184.252C856.5 184.476 856.304 184.588 856.08 184.588C855.865 184.588 855.674 184.537 855.506 184.434C855.347 184.322 855.244 184.177 855.198 184C855.384 183.729 855.478 183.454 855.478 183.174C855.478 182.885 855.333 182.656 855.044 182.488C854.764 182.311 854.39 182.222 853.924 182.222C852.925 182.222 852.206 182.544 851.768 183.188C851.329 183.823 851.11 184.859 851.11 186.296C851.11 187.733 851.324 188.765 851.754 189.39C852.183 190.015 852.902 190.328 853.91 190.328C854.236 190.328 854.582 190.263 854.946 190.132C855.646 189.871 856.136 189.353 856.416 188.578L857.116 188.83C856.966 189.231 856.766 189.586 856.514 189.894C856.262 190.193 856.014 190.417 855.772 190.566C855.529 190.715 855.263 190.832 854.974 190.916C854.563 191.037 854.208 191.098 853.91 191.098ZM860.048 191.112C859.451 191.112 858.984 190.963 858.648 190.664C858.321 190.356 858.158 189.903 858.158 189.306C858.158 188.699 858.387 188.209 858.844 187.836C859.311 187.463 859.987 187.243 860.874 187.178L862.064 187.094V185.862C862.064 185.358 861.961 184.994 861.756 184.77C861.56 184.537 861.243 184.42 860.804 184.42C860.011 184.42 859.614 184.649 859.614 185.106C859.614 185.358 859.768 185.545 860.076 185.666C860.076 186.142 859.787 186.38 859.208 186.38C858.947 186.38 858.737 186.301 858.578 186.142C858.419 185.983 858.34 185.773 858.34 185.512C858.34 184.989 858.559 184.579 858.998 184.28C859.446 183.972 860.057 183.818 860.832 183.818C861.616 183.818 862.232 184 862.68 184.364C863.128 184.719 863.352 185.218 863.352 185.862V190.076C863.585 190.253 863.935 190.389 864.402 190.482L864.346 191H862.26L862.106 190.328C861.555 190.851 860.869 191.112 860.048 191.112ZM859.488 189.25C859.488 190.071 859.805 190.482 860.44 190.482C860.944 190.482 861.485 190.193 862.064 189.614V187.71L860.93 187.808C860.482 187.845 860.127 187.995 859.866 188.256C859.614 188.517 859.488 188.849 859.488 189.25ZM866.052 185.764C866.052 185.391 865.972 185.139 865.814 185.008C865.664 184.868 865.394 184.789 865.002 184.77L865.044 184.322C865.249 184.285 865.865 184.117 866.892 183.818L867.158 183.958L867.298 184.896C867.82 184.177 868.464 183.818 869.23 183.818C869.995 183.818 870.583 184.005 870.994 184.378C871.404 184.742 871.61 185.251 871.61 185.904V190.076C871.843 190.253 872.193 190.389 872.66 190.482L872.604 191H869.286L869.328 190.482C869.701 190.426 870.032 190.291 870.322 190.076V186.044C870.322 185.045 869.892 184.546 869.034 184.546C868.688 184.546 868.357 184.663 868.04 184.896C867.722 185.129 867.489 185.433 867.34 185.806V190.076C867.592 190.263 867.942 190.398 868.39 190.482L868.334 191H865.002L865.058 190.454C865.459 190.389 865.79 190.263 866.052 190.076V185.764ZM874.364 189.25V184.7H873.132V184.28C874.121 183.944 874.765 183.333 875.064 182.446H875.666V183.916H877.374V184.7H875.652V189.362C875.652 189.735 875.694 190.001 875.778 190.16C875.862 190.319 876.053 190.398 876.352 190.398C876.651 190.398 876.963 190.3 877.29 190.104L877.584 190.552C877.117 190.925 876.576 191.112 875.96 191.112C875.344 191.112 874.924 190.972 874.7 190.692C874.476 190.403 874.364 189.922 874.364 189.25ZM879.83 187.346V187.57C879.83 188.727 879.984 189.507 880.292 189.908C880.581 190.281 881.053 190.468 881.706 190.468C882.369 190.468 882.933 190.193 883.4 189.642L883.876 190.118C883.307 190.781 882.541 191.112 881.58 191.112C880.451 191.112 879.643 190.799 879.158 190.174C878.682 189.549 878.444 188.653 878.444 187.486C878.444 186.319 878.705 185.419 879.228 184.784C879.751 184.14 880.507 183.818 881.496 183.818C882.485 183.818 883.176 184.079 883.568 184.602C883.96 185.125 884.17 185.904 884.198 186.94L883.89 187.346H879.83ZM881.468 184.434C880.404 184.434 879.858 185.218 879.83 186.786L882.84 186.674C882.84 185.89 882.742 185.321 882.546 184.966C882.35 184.611 881.991 184.434 881.468 184.434ZM886.639 187.346V187.57C886.639 188.727 886.793 189.507 887.101 189.908C887.39 190.281 887.861 190.468 888.515 190.468C889.177 190.468 889.742 190.193 890.209 189.642L890.685 190.118C890.115 190.781 889.35 191.112 888.389 191.112C887.259 191.112 886.452 190.799 885.967 190.174C885.491 189.549 885.253 188.653 885.253 187.486C885.253 186.319 885.514 185.419 886.037 184.784C886.559 184.14 887.315 183.818 888.305 183.818C889.294 183.818 889.985 184.079 890.377 184.602C890.769 185.125 890.979 185.904 891.007 186.94L890.699 187.346H886.639ZM888.277 184.434C887.213 184.434 886.667 185.218 886.639 186.786L889.649 186.674C889.649 185.89 889.551 185.321 889.355 184.966C889.159 184.611 888.799 184.434 888.277 184.434ZM892.985 185.764C892.985 185.391 892.906 185.139 892.747 185.008C892.598 184.868 892.327 184.789 891.935 184.77L891.977 184.322C892.182 184.285 892.798 184.117 893.825 183.818L894.091 183.958L894.231 184.896C894.754 184.177 895.398 183.818 896.163 183.818C896.928 183.818 897.516 184.005 897.927 184.378C898.338 184.742 898.543 185.251 898.543 185.904V190.076C898.776 190.253 899.126 190.389 899.593 190.482L899.537 191H896.219L896.261 190.482C896.634 190.426 896.966 190.291 897.255 190.076V186.044C897.255 185.045 896.826 184.546 895.967 184.546C895.622 184.546 895.29 184.663 894.973 184.896C894.656 185.129 894.422 185.433 894.273 185.806V190.076C894.525 190.263 894.875 190.398 895.323 190.482L895.267 191H891.935L891.991 190.454C892.392 190.389 892.724 190.263 892.985 190.076V185.764Z" fill="black"/>
<path d="M805.208 496.02C805.759 496.235 806.314 496.342 806.874 496.342C807.444 496.342 807.896 496.197 808.232 495.908C808.568 495.619 808.736 495.217 808.736 494.704C808.736 494.051 808.424 493.547 807.798 493.192C807.528 493.043 807.224 492.903 806.888 492.772C806.562 492.641 806.23 492.501 805.894 492.352C805.568 492.203 805.269 492.03 804.998 491.834C804.373 491.395 804.06 490.779 804.06 489.986C804.06 489.183 804.331 488.558 804.872 488.11C805.414 487.653 806.114 487.424 806.972 487.424C807.84 487.424 808.55 487.606 809.1 487.97C809.651 488.334 809.926 488.782 809.926 489.314C809.926 489.949 809.674 490.266 809.17 490.266C808.788 490.266 808.498 490.121 808.302 489.832C808.517 489.636 808.624 489.398 808.624 489.118C808.624 488.838 808.489 488.614 808.218 488.446C807.957 488.278 807.57 488.194 807.056 488.194C806.543 488.194 806.128 488.315 805.81 488.558C805.502 488.801 805.348 489.118 805.348 489.51C805.348 489.893 805.437 490.201 805.614 490.434C805.792 490.667 806.016 490.859 806.286 491.008C806.566 491.157 806.874 491.302 807.21 491.442C807.556 491.573 807.896 491.717 808.232 491.876C808.578 492.035 808.886 492.217 809.156 492.422C809.436 492.627 809.665 492.903 809.842 493.248C810.02 493.593 810.108 493.995 810.108 494.452C810.108 495.301 809.796 495.959 809.17 496.426C808.554 496.883 807.728 497.112 806.692 497.112C806.179 497.112 805.647 497.023 805.096 496.846C804.555 496.669 804.163 496.496 803.92 496.328V493.892L804.676 493.808C804.788 494.723 804.966 495.46 805.208 496.02ZM812.788 493.458C812.788 494.503 812.928 495.259 813.208 495.726C813.488 496.183 813.94 496.412 814.566 496.412C815.2 496.412 815.658 496.183 815.938 495.726C816.218 495.259 816.358 494.508 816.358 493.472C816.358 492.427 816.218 491.675 815.938 491.218C815.658 490.751 815.2 490.518 814.566 490.518C813.931 490.518 813.474 490.747 813.194 491.204C812.923 491.661 812.788 492.413 812.788 493.458ZM816.89 496.188C816.367 496.804 815.592 497.112 814.566 497.112C813.539 497.112 812.76 496.804 812.228 496.188C811.705 495.563 811.444 494.657 811.444 493.472C811.444 492.277 811.705 491.372 812.228 490.756C812.76 490.131 813.539 489.818 814.566 489.818C815.592 489.818 816.367 490.131 816.89 490.756C817.422 491.372 817.688 492.277 817.688 493.472C817.688 494.657 817.422 495.563 816.89 496.188ZM822.004 497.07C820.903 497.07 820.1 496.785 819.596 496.216C819.092 495.637 818.84 494.727 818.84 493.486C818.84 491.069 819.918 489.86 822.074 489.86C822.765 489.86 823.325 490.009 823.754 490.308C824.183 490.597 824.398 490.98 824.398 491.456C824.398 491.699 824.319 491.909 824.16 492.086C824.001 492.263 823.819 492.352 823.614 492.352C823.418 492.352 823.245 492.301 823.096 492.198C822.947 492.095 822.853 491.965 822.816 491.806C822.947 491.601 823.012 491.395 823.012 491.19C823.012 490.985 822.923 490.803 822.746 490.644C822.578 490.485 822.354 490.406 822.074 490.406C821.439 490.406 820.973 490.653 820.674 491.148C820.385 491.633 820.24 492.413 820.24 493.486C820.24 494.55 820.375 495.315 820.646 495.782C820.926 496.239 821.379 496.468 822.004 496.468C822.835 496.468 823.413 496.025 823.74 495.138L824.356 495.348C824.188 495.88 823.894 496.3 823.474 496.608C823.054 496.916 822.564 497.07 822.004 497.07ZM827.447 497.112C826.849 497.112 826.383 496.963 826.047 496.664C825.72 496.356 825.557 495.903 825.557 495.306C825.557 494.699 825.785 494.209 826.243 493.836C826.709 493.463 827.386 493.243 828.273 493.178L829.463 493.094V491.862C829.463 491.358 829.36 490.994 829.155 490.77C828.959 490.537 828.641 490.42 828.203 490.42C827.409 490.42 827.013 490.649 827.013 491.106C827.013 491.358 827.167 491.545 827.475 491.666C827.475 492.142 827.185 492.38 826.607 492.38C826.345 492.38 826.135 492.301 825.977 492.142C825.818 491.983 825.739 491.773 825.739 491.512C825.739 490.989 825.958 490.579 826.397 490.28C826.845 489.972 827.456 489.818 828.231 489.818C829.015 489.818 829.631 490 830.079 490.364C830.527 490.719 830.751 491.218 830.751 491.862V496.076C830.984 496.253 831.334 496.389 831.801 496.482L831.745 497H829.659L829.505 496.328C828.954 496.851 828.268 497.112 827.447 497.112ZM826.887 495.25C826.887 496.071 827.204 496.482 827.839 496.482C828.343 496.482 828.884 496.193 829.463 495.614V493.71L828.329 493.808C827.881 493.845 827.526 493.995 827.265 494.256C827.013 494.517 826.887 494.849 826.887 495.25ZM833.506 491.736C833.506 491.363 833.427 491.111 833.268 490.98C833.119 490.84 832.848 490.761 832.456 490.742L832.498 490.294C832.881 490.229 833.548 490.056 834.5 489.776L834.794 489.93V496.076C835.046 496.263 835.396 496.398 835.844 496.482L835.788 497H832.456L832.512 496.454C832.913 496.389 833.245 496.263 833.506 496.076V491.736ZM834.864 487.83C834.864 488.409 834.598 488.698 834.066 488.698C833.543 488.698 833.282 488.409 833.282 487.83C833.282 487.242 833.543 486.948 834.066 486.948C834.598 486.948 834.864 487.242 834.864 487.83ZM837.634 488.74C837.634 488.367 837.554 488.115 837.396 487.984C837.246 487.844 836.976 487.765 836.584 487.746L836.626 487.298C837.008 487.233 837.676 487.06 838.628 486.78L838.922 486.934V496.076C839.174 496.263 839.524 496.398 839.972 496.482L839.916 497H836.584L836.64 496.454C837.041 496.389 837.372 496.263 837.634 496.076V488.74ZM846.505 497.112C845.908 497.112 845.441 496.963 845.105 496.664C844.779 496.356 844.615 495.903 844.615 495.306C844.615 494.699 844.844 494.209 845.301 493.836C845.768 493.463 846.445 493.243 847.331 493.178L848.521 493.094V491.862C848.521 491.358 848.419 490.994 848.213 490.77C848.017 490.537 847.7 490.42 847.261 490.42C846.468 490.42 846.071 490.649 846.071 491.106C846.071 491.358 846.225 491.545 846.533 491.666C846.533 492.142 846.244 492.38 845.665 492.38C845.404 492.38 845.194 492.301 845.035 492.142C844.877 491.983 844.797 491.773 844.797 491.512C844.797 490.989 845.017 490.579 845.455 490.28C845.903 489.972 846.515 489.818 847.289 489.818C848.073 489.818 848.689 490 849.137 490.364C849.585 490.719 849.809 491.218 849.809 491.862V496.076C850.043 496.253 850.393 496.389 850.859 496.482L850.803 497H848.717L848.563 496.328C848.013 496.851 847.327 497.112 846.505 497.112ZM845.945 495.25C845.945 496.071 846.263 496.482 846.897 496.482C847.401 496.482 847.943 496.193 848.521 495.614V493.71L847.387 493.808C846.939 493.845 846.585 493.995 846.323 494.256C846.071 494.517 845.945 494.849 845.945 495.25ZM852.733 490.7H851.613L851.543 490.182C852.047 490.098 852.443 490.009 852.733 489.916V489.09C852.733 488.25 852.905 487.578 853.251 487.074C853.596 486.561 854.151 486.304 854.917 486.304C855.411 486.304 855.841 486.439 856.205 486.71C856.578 486.981 856.765 487.293 856.765 487.648C856.765 488.003 856.685 488.264 856.527 488.432C856.368 488.591 856.195 488.67 856.009 488.67C855.607 488.67 855.369 488.474 855.295 488.082C855.481 487.895 855.575 487.718 855.575 487.55C855.575 487.382 855.505 487.242 855.365 487.13C855.234 487.018 855.052 486.962 854.819 486.962C854.165 486.962 853.839 487.359 853.839 488.152C853.839 488.311 853.867 488.595 853.923 489.006C853.988 489.417 854.021 489.72 854.021 489.916H855.589V490.7H854.021V496.076C854.254 496.244 854.637 496.379 855.169 496.482L855.113 497H851.683L851.739 496.454C852.14 496.389 852.471 496.263 852.733 496.076V490.7ZM857.86 490.7H856.74L856.67 490.182C857.174 490.098 857.57 490.009 857.86 489.916V489.09C857.86 488.25 858.032 487.578 858.378 487.074C858.723 486.561 859.278 486.304 860.044 486.304C860.538 486.304 860.968 486.439 861.332 486.71C861.705 486.981 861.892 487.293 861.892 487.648C861.892 488.003 861.812 488.264 861.654 488.432C861.495 488.591 861.322 488.67 861.136 488.67C860.734 488.67 860.496 488.474 860.422 488.082C860.608 487.895 860.702 487.718 860.702 487.55C860.702 487.382 860.632 487.242 860.492 487.13C860.361 487.018 860.179 486.962 859.946 486.962C859.292 486.962 858.966 487.359 858.966 488.152C858.966 488.311 858.994 488.595 859.05 489.006C859.115 489.417 859.148 489.72 859.148 489.916H860.716V490.7H859.148V496.076C859.381 496.244 859.764 496.379 860.296 496.482L860.24 497H856.81L856.866 496.454C857.267 496.389 857.598 496.263 857.86 496.076V490.7ZM863.868 497.112C863.271 497.112 862.804 496.963 862.468 496.664C862.142 496.356 861.978 495.903 861.978 495.306C861.978 494.699 862.207 494.209 862.664 493.836C863.131 493.463 863.808 493.243 864.694 493.178L865.884 493.094V491.862C865.884 491.358 865.782 490.994 865.576 490.77C865.38 490.537 865.063 490.42 864.624 490.42C863.831 490.42 863.434 490.649 863.434 491.106C863.434 491.358 863.588 491.545 863.896 491.666C863.896 492.142 863.607 492.38 863.028 492.38C862.767 492.38 862.557 492.301 862.398 492.142C862.24 491.983 862.16 491.773 862.16 491.512C862.16 490.989 862.38 490.579 862.818 490.28C863.266 489.972 863.878 489.818 864.652 489.818C865.436 489.818 866.052 490 866.5 490.364C866.948 490.719 867.172 491.218 867.172 491.862V496.076C867.406 496.253 867.756 496.389 868.222 496.482L868.166 497H866.08L865.926 496.328C865.376 496.851 864.69 497.112 863.868 497.112ZM863.308 495.25C863.308 496.071 863.626 496.482 864.26 496.482C864.764 496.482 865.306 496.193 865.884 495.614V493.71L864.75 493.808C864.302 493.845 863.948 493.995 863.686 494.256C863.434 494.517 863.308 494.849 863.308 495.25ZM869.928 491.736C869.928 491.363 869.848 491.111 869.69 490.98C869.54 490.84 869.27 490.761 868.878 490.742L868.92 490.294C869.302 490.229 869.97 490.056 870.922 489.776L871.216 489.93V496.076C871.468 496.263 871.818 496.398 872.266 496.482L872.21 497H868.878L868.934 496.454C869.335 496.389 869.666 496.263 869.928 496.076V491.736ZM871.286 487.83C871.286 488.409 871.02 488.698 870.488 488.698C869.965 488.698 869.704 488.409 869.704 487.83C869.704 487.242 869.965 486.948 870.488 486.948C871.02 486.948 871.286 487.242 871.286 487.83ZM874.111 491.764C874.111 491.391 874.032 491.139 873.873 491.008C873.724 490.868 873.453 490.789 873.061 490.77L873.103 490.322C873.309 490.285 873.925 490.117 874.951 489.818L875.217 489.958L875.371 491.008C875.903 490.215 876.505 489.818 877.177 489.818C877.541 489.818 877.854 489.925 878.115 490.14C878.386 490.355 878.521 490.625 878.521 490.952C878.521 491.269 878.447 491.521 878.297 491.708C878.157 491.895 877.98 491.988 877.765 491.988C877.56 491.988 877.383 491.946 877.233 491.862C877.084 491.778 876.991 491.666 876.953 491.526C877.056 491.423 877.107 491.283 877.107 491.106C877.107 490.798 876.963 490.644 876.673 490.644C876.384 490.644 876.099 490.859 875.819 491.288C875.539 491.717 875.399 492.17 875.399 492.646V496.076C875.679 496.263 876.076 496.398 876.589 496.482L876.533 497H873.061L873.117 496.454C873.519 496.389 873.85 496.263 874.111 496.076V491.764ZM880.725 496.272C881.071 496.375 881.444 496.426 881.845 496.426C882.247 496.426 882.573 496.314 882.825 496.09C883.077 495.857 883.203 495.586 883.203 495.278C883.203 494.97 883.11 494.723 882.923 494.536C882.746 494.34 882.522 494.2 882.251 494.116C881.981 494.023 881.682 493.915 881.355 493.794C881.038 493.673 880.744 493.547 880.473 493.416C880.203 493.285 879.974 493.075 879.787 492.786C879.61 492.487 879.521 492.128 879.521 491.708C879.521 491.139 879.745 490.686 880.193 490.35C880.651 490.005 881.225 489.832 881.915 489.832C882.615 489.832 883.189 489.977 883.637 490.266C884.085 490.546 884.309 490.891 884.309 491.302C884.309 491.825 884.076 492.086 883.609 492.086C883.255 492.086 882.989 491.951 882.811 491.68C882.97 491.549 883.049 491.377 883.049 491.162C883.049 490.938 882.937 490.761 882.713 490.63C882.499 490.499 882.214 490.434 881.859 490.434C881.514 490.434 881.225 490.527 880.991 490.714C880.767 490.891 880.655 491.143 880.655 491.47C880.655 491.797 880.781 492.067 881.033 492.282C881.295 492.497 881.607 492.665 881.971 492.786C882.335 492.898 882.699 493.024 883.063 493.164C883.437 493.295 883.749 493.509 884.001 493.808C884.263 494.107 884.393 494.485 884.393 494.942C884.393 495.623 884.16 496.151 883.693 496.524C883.227 496.897 882.569 497.084 881.719 497.084C881.374 497.084 880.973 497.028 880.515 496.916C880.067 496.795 879.731 496.659 879.507 496.51V494.648L880.319 494.55C880.385 495.315 880.52 495.889 880.725 496.272ZM890.526 493.458C890.526 494.503 890.666 495.259 890.946 495.726C891.226 496.183 891.679 496.412 892.304 496.412C892.939 496.412 893.396 496.183 893.676 495.726C893.956 495.259 894.096 494.508 894.096 493.472C894.096 492.427 893.956 491.675 893.676 491.218C893.396 490.751 892.939 490.518 892.304 490.518C891.669 490.518 891.212 490.747 890.932 491.204C890.661 491.661 890.526 492.413 890.526 493.458ZM894.628 496.188C894.105 496.804 893.331 497.112 892.304 497.112C891.277 497.112 890.498 496.804 889.966 496.188C889.443 495.563 889.182 494.657 889.182 493.472C889.182 492.277 889.443 491.372 889.966 490.756C890.498 490.131 891.277 489.818 892.304 489.818C893.331 489.818 894.105 490.131 894.628 490.756C895.16 491.372 895.426 492.277 895.426 493.472C895.426 494.657 895.16 495.563 894.628 496.188ZM897.74 490.7H896.62L896.55 490.182C897.054 490.098 897.451 490.009 897.74 489.916V489.09C897.74 488.25 897.913 487.578 898.258 487.074C898.604 486.561 899.159 486.304 899.924 486.304C900.419 486.304 900.848 486.439 901.212 486.71C901.586 486.981 901.772 487.293 901.772 487.648C901.772 488.003 901.693 488.264 901.534 488.432C901.376 488.591 901.203 488.67 901.016 488.67C900.615 488.67 900.377 488.474 900.302 488.082C900.489 487.895 900.582 487.718 900.582 487.55C900.582 487.382 900.512 487.242 900.372 487.13C900.242 487.018 900.06 486.962 899.826 486.962C899.173 486.962 898.846 487.359 898.846 488.152C898.846 488.311 898.874 488.595 898.93 489.006C898.996 489.417 899.028 489.72 899.028 489.916H900.596V490.7H899.028V496.076C899.262 496.244 899.644 496.379 900.176 496.482L900.12 497H896.69L896.746 496.454C897.148 496.389 897.479 496.263 897.74 496.076V490.7ZM902.867 490.7H901.747L901.677 490.182C902.181 490.098 902.578 490.009 902.867 489.916V489.09C902.867 488.25 903.04 487.578 903.385 487.074C903.731 486.561 904.286 486.304 905.051 486.304C905.546 486.304 905.975 486.439 906.339 486.71C906.713 486.981 906.899 487.293 906.899 487.648C906.899 488.003 906.82 488.264 906.661 488.432C906.503 488.591 906.33 488.67 906.143 488.67C905.742 488.67 905.504 488.474 905.429 488.082C905.616 487.895 905.709 487.718 905.709 487.55C905.709 487.382 905.639 487.242 905.499 487.13C905.369 487.018 905.187 486.962 904.953 486.962C904.3 486.962 903.973 487.359 903.973 488.152C903.973 488.311 904.001 488.595 904.057 489.006C904.123 489.417 904.155 489.72 904.155 489.916H905.723V490.7H904.155V496.076C904.389 496.244 904.771 496.379 905.303 496.482L905.247 497H901.817L901.873 496.454C902.275 496.389 902.606 496.263 902.867 496.076V490.7ZM907.826 491.736C907.826 491.363 907.747 491.111 907.588 490.98C907.439 490.84 907.168 490.761 906.776 490.742L906.818 490.294C907.201 490.229 907.868 490.056 908.82 489.776L909.114 489.93V496.076C909.366 496.263 909.716 496.398 910.164 496.482L910.108 497H906.776L906.832 496.454C907.234 496.389 907.565 496.263 907.826 496.076V491.736ZM909.184 487.83C909.184 488.409 908.918 488.698 908.386 488.698C907.864 488.698 907.602 488.409 907.602 487.83C907.602 487.242 907.864 486.948 908.386 486.948C908.918 486.948 909.184 487.242 909.184 487.83ZM914.18 497.07C913.079 497.07 912.276 496.785 911.772 496.216C911.268 495.637 911.016 494.727 911.016 493.486C911.016 491.069 912.094 489.86 914.25 489.86C914.941 489.86 915.501 490.009 915.93 490.308C916.359 490.597 916.574 490.98 916.574 491.456C916.574 491.699 916.495 491.909 916.336 492.086C916.177 492.263 915.995 492.352 915.79 492.352C915.594 492.352 915.421 492.301 915.272 492.198C915.123 492.095 915.029 491.965 914.992 491.806C915.123 491.601 915.188 491.395 915.188 491.19C915.188 490.985 915.099 490.803 914.922 490.644C914.754 490.485 914.53 490.406 914.25 490.406C913.615 490.406 913.149 490.653 912.85 491.148C912.561 491.633 912.416 492.413 912.416 493.486C912.416 494.55 912.551 495.315 912.822 495.782C913.102 496.239 913.555 496.468 914.18 496.468C915.011 496.468 915.589 496.025 915.916 495.138L916.532 495.348C916.364 495.88 916.07 496.3 915.65 496.608C915.23 496.916 914.74 497.07 914.18 497.07ZM918.978 493.346V493.57C918.978 494.727 919.132 495.507 919.44 495.908C919.73 496.281 920.201 496.468 920.854 496.468C921.517 496.468 922.082 496.193 922.548 495.642L923.024 496.118C922.455 496.781 921.69 497.112 920.728 497.112C919.599 497.112 918.792 496.799 918.306 496.174C917.83 495.549 917.592 494.653 917.592 493.486C917.592 492.319 917.854 491.419 918.376 490.784C918.899 490.14 919.655 489.818 920.644 489.818C921.634 489.818 922.324 490.079 922.716 490.602C923.108 491.125 923.318 491.904 923.346 492.94L923.038 493.346H918.978ZM920.616 490.434C919.552 490.434 919.006 491.218 918.978 492.786L921.988 492.674C921.988 491.89 921.89 491.321 921.694 490.966C921.498 490.611 921.139 490.434 920.616 490.434Z" fill="black"/>
<path d="M353.917 96.6764L345.424 99.1097C345.251 99.447 345.131 99.9193 345.065 100.527L344.504 100.461L344.446 96.2334L345.007 96.3129C345.08 96.8817 345.217 97.3286 345.418 97.6537L352.086 95.8929L344.508 93.5728L344.497 92.7749L351.883 90.2664L345.293 88.5826C345.111 88.92 344.987 89.4017 344.921 90.0275L344.36 89.962L344.308 86.1543L344.869 86.2339C344.942 86.84 345.079 87.3009 345.28 87.6166L353.824 89.9151L353.839 90.979L346.773 93.3589L353.902 95.5705L353.917 96.6764ZM353.802 81.1463C353.822 82.6302 353.45 83.7205 352.684 84.4172C351.919 85.1046 350.711 85.4548 349.059 85.4679C345.829 85.4935 344.195 84.0784 344.156 81.2226C344.141 80.1027 344.404 79.2513 344.947 78.6683C345.251 78.3486 345.598 78.1872 345.99 78.1841C346.382 78.181 346.692 78.2672 346.918 78.4427C347.144 78.609 347.259 78.804 347.262 79.028C347.265 79.2427 347.216 79.4344 347.116 79.6032C347.006 79.7627 346.863 79.8665 346.686 79.9146C346.413 79.7301 346.136 79.6389 345.856 79.6412C345.567 79.6434 345.34 79.7899 345.176 80.0805C345.003 80.3619 344.919 80.7359 344.926 81.2025C344.939 82.2011 345.271 82.9172 345.921 83.3507C346.562 83.7843 347.601 83.9954 349.038 83.984C350.476 83.9727 351.504 83.7499 352.123 83.3156C352.743 82.8814 353.046 82.1603 353.032 81.1524C353.027 80.8258 352.957 80.481 352.821 80.118C352.551 79.4202 352.026 78.9343 351.247 78.6605L351.49 77.9586C351.893 78.1047 352.25 78.3025 352.562 78.5521C352.864 78.8017 353.091 79.0472 353.244 79.2887C353.397 79.5302 353.517 79.7952 353.605 80.0838C353.732 80.4935 353.798 80.8477 353.802 81.1463ZM350.276 77.2336L349.464 77.24L349.406 73.0544L350.218 73.048L350.276 77.2336ZM353.618 67.7798C353.638 69.1983 353.265 70.2466 352.499 70.9247C351.724 71.6028 350.516 71.9484 348.873 71.9614C345.653 71.9868 344.024 70.5717 343.985 67.716C343.969 66.5868 344.242 65.7166 344.803 65.1055C345.115 64.767 345.51 64.5959 345.986 64.5921C346.284 64.5897 346.542 64.6764 346.759 64.852C346.967 65.0277 347.073 65.2228 347.075 65.4375C347.078 65.6521 347.03 65.8439 346.929 66.0127C346.82 66.1722 346.676 66.276 346.5 66.3241C346.226 66.1396 345.954 66.0484 345.684 66.0505C345.404 66.0527 345.177 66.2132 345.004 66.5319C344.831 66.8506 344.748 67.2386 344.754 67.6959C344.768 68.6945 345.1 69.4105 345.75 69.844C346.391 70.2777 347.425 70.4888 348.853 70.4775C350.281 70.4662 351.309 70.2527 351.938 69.8371C352.558 69.4122 352.861 68.7284 352.848 67.7858C352.839 67.1139 352.723 66.4662 352.499 65.8426L349.756 65.8643L349.664 67.335L349.104 67.3395L348.856 64.5694L352.874 64.5376C353.356 65.6538 353.604 66.7345 353.618 67.7798Z" fill="black"/>
<path d="M451.597 96.3814L443.128 98.8629C442.958 99.2013 442.844 99.6742 442.783 100.282L442.222 100.219L442.122 95.9925L442.684 96.0689C442.762 96.6371 442.904 97.0832 443.107 97.4071L449.758 95.6085L442.157 93.3319L442.138 92.5341L449.499 89.9837L442.893 88.3377C442.714 88.6761 442.595 89.1584 442.535 89.7846L441.973 89.7223L441.884 85.9153L442.445 85.9917C442.525 86.5973 442.667 87.0574 442.87 87.3719L451.437 89.6213L451.462 90.685L444.42 93.1051L451.571 95.2758L451.597 96.3814ZM451.328 80.8536C451.363 82.3372 451.002 83.4295 450.243 84.1306C449.485 84.8222 448.28 85.1793 446.628 85.2019C443.399 85.2458 441.75 83.8402 441.683 80.985C441.656 79.8653 441.912 79.0125 442.449 78.4265C442.749 78.1051 443.095 77.9417 443.487 77.9363C443.879 77.931 444.189 78.0154 444.418 78.1897C444.645 78.3546 444.762 78.549 444.767 78.7729C444.772 78.9875 444.726 79.1795 444.627 79.3489C444.519 79.509 444.377 79.6136 444.2 79.6627C443.925 79.4798 443.648 79.3902 443.368 79.394C443.078 79.398 442.853 79.5457 442.692 79.8372C442.521 80.1196 442.442 80.494 442.453 80.9605C442.476 81.9589 442.815 82.673 443.469 83.1028C444.114 83.5327 445.155 83.7378 446.593 83.7183C448.03 83.6987 449.056 83.47 449.671 83.0323C450.286 82.5946 450.582 81.8718 450.558 80.8641C450.55 80.5375 450.477 80.1932 450.338 79.8311C450.06 79.1348 449.53 78.652 448.749 78.3827L448.985 77.6794C449.389 77.8232 449.749 78.019 450.063 78.2668C450.367 78.5146 450.597 78.7588 450.752 78.9994C450.907 79.24 451.03 79.5043 451.121 79.7924C451.252 80.2013 451.321 80.555 451.328 80.8536ZM447.763 76.9615L446.951 76.9725L446.852 72.7877L447.664 72.7766L447.763 76.9615ZM441.456 67.8298C441.402 65.5624 442.164 64.418 443.741 64.3965C444.787 64.3822 445.486 64.9234 445.838 66.02C446.019 65.3735 446.31 64.8655 446.712 64.496C447.105 64.1266 447.586 63.9381 448.155 63.9303C448.977 63.9191 449.637 64.2135 450.137 64.8134C450.627 65.404 450.885 66.2359 450.91 67.3089L451.014 71.7037L450.452 71.6274C450.373 71.0497 450.231 70.599 450.028 70.2751L442.468 70.3781C442.28 70.7073 442.161 71.1896 442.111 71.825L441.549 71.7627L441.456 67.8298ZM450.206 68.9426L450.168 67.319C450.152 66.6472 449.977 66.1409 449.642 65.8001C449.307 65.4594 448.827 65.2932 448.202 65.3017C447.577 65.3103 447.101 65.5221 446.775 65.9372C446.439 66.3431 446.28 66.9473 446.299 67.7498L446.329 68.9954L450.206 68.9426ZM445.587 69.0055L445.557 67.7459C445.54 67.0367 445.388 66.5208 445.1 66.198C444.812 65.8659 444.379 65.7038 443.801 65.7117C443.222 65.7196 442.801 65.8933 442.539 66.2329C442.267 66.5727 442.139 67.1064 442.156 67.8342C442.163 68.1141 442.187 68.5198 442.227 69.0513L445.587 69.0055Z" fill="black"/>
<path d="M540.036 123.796C540.248 123.245 540.353 122.69 540.351 122.13C540.348 121.56 540.202 121.108 539.911 120.773C539.621 120.437 539.219 120.27 538.705 120.272C538.052 120.273 537.549 120.587 537.197 121.213C537.049 121.484 536.91 121.788 536.781 122.124C536.651 122.451 536.513 122.783 536.365 123.119C536.217 123.446 536.045 123.745 535.85 124.016C535.414 124.643 534.8 124.957 534.006 124.959C533.204 124.961 532.577 124.691 532.127 124.151C531.667 123.611 531.436 122.911 531.432 122.053C531.429 121.185 531.608 120.475 531.97 119.923C532.331 119.372 532.778 119.096 533.31 119.094C533.945 119.093 534.263 119.344 534.265 119.848C534.267 120.231 534.123 120.52 533.835 120.717C533.638 120.503 533.4 120.396 533.12 120.397C532.84 120.397 532.616 120.533 532.449 120.804C532.282 121.066 532.2 121.454 532.202 121.967C532.204 122.48 532.327 122.895 532.571 123.212C532.815 123.519 533.133 123.673 533.525 123.672C533.908 123.671 534.215 123.581 534.448 123.404C534.681 123.226 534.871 123.001 535.019 122.73C535.167 122.45 535.311 122.142 535.449 121.805C535.579 121.46 535.722 121.119 535.879 120.782C536.036 120.437 536.217 120.128 536.421 119.857C536.626 119.576 536.9 119.347 537.245 119.169C537.589 118.991 537.99 118.901 538.448 118.9C539.297 118.898 539.956 119.209 540.425 119.834C540.885 120.448 541.117 121.274 541.121 122.31C541.124 122.823 541.037 123.355 540.862 123.907C540.687 124.448 540.516 124.841 540.349 125.084L537.913 125.089L537.826 124.334C538.74 124.22 539.477 124.04 540.036 123.796ZM539.236 116.625L534.686 116.636L534.691 117.868L534.271 117.869C533.931 116.88 533.317 116.238 532.429 115.941L532.427 115.339L533.897 115.336L533.89 113.628L534.674 113.626L534.681 115.348L539.343 115.337C539.716 115.336 539.982 115.293 540.141 115.209C540.299 115.124 540.377 114.933 540.376 114.634C540.375 114.336 540.276 114.023 540.078 113.697L540.525 113.402C540.9 113.868 541.089 114.409 541.092 115.025C541.094 115.641 540.956 116.061 540.677 116.286C540.389 116.51 539.908 116.623 539.236 116.625ZM537.422 111.219C538.468 111.217 539.223 111.075 539.689 110.794C540.145 110.513 540.372 110.06 540.369 109.434C540.366 108.8 540.136 108.343 539.677 108.064C539.21 107.785 538.458 107.647 537.422 107.649C536.376 107.652 535.626 107.794 535.169 108.075C534.704 108.356 534.472 108.814 534.475 109.448C534.478 110.083 534.708 110.54 535.167 110.819C535.625 111.088 536.377 111.222 537.422 111.219ZM540.136 107.111C540.754 107.632 541.065 108.406 541.069 109.433C541.073 110.459 540.768 111.239 540.155 111.773C539.531 112.297 538.627 112.56 537.442 112.563C536.247 112.566 535.341 112.307 534.723 111.786C534.095 111.255 533.779 110.477 533.775 109.45C533.771 108.423 534.08 107.648 534.704 107.124C535.317 106.59 536.222 106.322 537.416 106.319C538.602 106.317 539.508 106.58 540.136 107.111ZM535.7 104.177C535.326 104.178 535.075 104.258 534.945 104.417C534.805 104.566 534.727 104.837 534.71 105.229L534.262 105.188C534.223 104.983 534.053 104.367 533.75 103.341L533.889 103.075L534.938 102.919C534.143 102.389 533.744 101.787 533.741 101.115C533.74 100.751 533.846 100.439 534.059 100.177C534.273 99.9056 534.543 99.7696 534.87 99.7688C535.187 99.7681 535.439 99.8422 535.626 99.991C535.814 100.131 535.908 100.308 535.909 100.522C535.909 100.728 535.868 100.905 535.785 101.055C535.701 101.204 535.59 101.298 535.45 101.335C535.347 101.233 535.207 101.182 535.029 101.182C534.721 101.183 534.568 101.328 534.569 101.618C534.57 101.907 534.786 102.191 535.217 102.47C535.647 102.749 536.1 102.888 536.576 102.887L540.006 102.879C540.192 102.598 540.326 102.201 540.407 101.688L540.926 101.743L540.94 105.215L540.394 105.16C540.327 104.759 540.199 104.428 540.012 104.167L535.7 104.177ZM541.019 97.0851C541.021 97.6824 540.874 98.1494 540.576 98.4861C540.27 98.8135 539.818 98.9779 539.22 98.9793C538.614 98.9807 538.123 98.7532 537.748 98.2968C537.372 97.831 537.15 97.1548 537.081 96.2683L536.992 95.0785L535.76 95.0814C535.256 95.0826 534.893 95.1861 534.67 95.392C534.437 95.5885 534.322 95.9061 534.324 96.3448C534.327 97.1381 534.557 97.5343 535.014 97.5332C535.266 97.5326 535.452 97.3782 535.573 97.0699C536.049 97.0688 536.288 97.3575 536.29 97.9362C536.291 98.1975 536.213 98.4077 536.055 98.5667C535.897 98.7258 535.687 98.8056 535.426 98.8062C534.903 98.8074 534.491 98.5891 534.191 98.1511C533.881 97.7038 533.725 97.0929 533.721 96.3182C533.718 95.5342 533.898 94.9178 534.26 94.469C534.613 94.0201 535.111 93.795 535.755 93.7934L539.969 93.7835C540.146 93.5498 540.279 93.1995 540.371 92.7326L540.889 92.7874L540.898 94.8734L540.226 95.0289C540.751 95.5784 541.015 96.2637 541.019 97.0851ZM539.159 97.6494C539.98 97.6475 540.39 97.3292 540.387 96.6946C540.385 96.1906 540.093 95.6499 539.512 95.0726L537.608 95.0771L537.711 96.2108C537.75 96.6588 537.901 97.0131 538.163 97.2738C538.426 97.5252 538.758 97.6504 539.159 97.6494ZM536.223 91.779C534.543 91.7829 533.699 90.8609 533.692 89.0129C533.689 88.3409 533.808 87.7853 534.049 87.3461C533.935 86.973 533.739 86.7868 533.459 86.7875C533.235 86.788 533.053 86.9284 532.914 87.2087C532.765 87.2091 532.643 87.144 532.55 87.0136C532.456 86.8831 532.408 86.7106 532.407 86.4959C532.407 86.2719 532.476 86.0898 532.615 85.9494C532.745 85.8091 532.922 85.7387 533.146 85.7382C533.762 85.7367 534.202 86.0904 534.467 86.7991C534.894 86.4247 535.477 86.2367 536.214 86.235C536.942 86.2333 537.527 86.4792 537.967 86.9729C538.408 87.4665 538.63 88.1426 538.634 89.0013L538.635 89.2113L539.576 89.9791C539.8 89.9692 539.953 89.8802 540.037 89.712C540.12 89.5345 540.165 89.259 540.173 88.8857L540.171 88.2557C540.167 87.3224 540.341 86.6406 540.694 86.2104C541.047 85.771 541.499 85.5506 542.05 85.5493C543.45 85.546 544.154 86.6083 544.163 88.7363C544.167 89.8003 543.998 90.6034 543.654 91.1455C543.321 91.6783 542.878 91.9453 542.328 91.9466C541.786 91.9479 541.394 91.8648 541.151 91.6974C540.917 91.5299 540.677 91.2272 540.433 90.7891C540.191 91.0136 539.86 91.1264 539.44 91.1274L538.553 89.8835C538.416 90.4811 538.142 90.9485 537.733 91.2854C537.324 91.613 536.82 91.7776 536.223 91.779ZM537.588 90.0818C537.876 89.8571 538.02 89.4974 538.018 89.0027C538.016 88.5081 537.87 88.1538 537.579 87.9398C537.289 87.7165 536.817 87.6056 536.164 87.6071C535.511 87.6086 535.035 87.7217 534.737 87.9464C534.44 88.1618 534.292 88.5168 534.294 89.0115C534.296 89.5062 534.447 89.8651 534.746 90.0884C535.046 90.3024 535.522 90.4086 536.175 90.4071C536.829 90.4055 537.3 90.2971 537.588 90.0818ZM540.872 88.604L540.877 89.892C541.187 90.3486 541.585 90.5764 542.07 90.5752C543.059 90.5729 543.552 89.9651 543.547 88.7517C543.542 87.5291 543.045 86.9189 542.055 86.9212C541.262 86.9231 540.868 87.484 540.872 88.604ZM537.196 83.3142L537.42 83.3137C538.578 83.311 539.357 83.1551 539.757 82.8462C540.129 82.556 540.313 82.0842 540.311 81.4309C540.308 80.7682 540.03 80.2042 539.478 79.7388L539.952 79.2617C540.617 79.8295 540.951 80.594 540.955 81.5554C540.96 82.6847 540.651 83.4928 540.027 83.9796C539.404 84.457 538.509 84.6971 537.342 84.6999C536.175 84.7026 535.274 84.4434 534.637 83.9222C533.991 83.4011 533.666 82.6458 533.662 81.6565C533.658 80.6672 533.916 79.9759 534.437 79.5827C534.958 79.1895 535.737 78.9776 536.773 78.9472L537.18 79.2542L537.196 83.3142ZM534.278 81.6831C534.282 82.7471 535.068 83.2912 536.636 83.3155L536.512 80.3058C535.728 80.3077 535.159 80.407 534.805 80.6038C534.452 80.8007 534.276 81.1604 534.278 81.6831ZM535.574 73.3744C535.201 73.3753 534.949 73.4552 534.819 73.6142C534.68 73.7638 534.601 74.0347 534.584 74.4267L534.136 74.3858C534.098 74.1805 533.927 73.5649 533.625 72.539L533.763 72.2727L534.813 72.1162C534.017 71.5861 533.618 70.985 533.615 70.313C533.614 69.949 533.72 69.6361 533.934 69.3743C534.147 69.1031 534.417 68.9671 534.744 68.9663C535.061 68.9656 535.314 69.0397 535.501 69.1886C535.688 69.3281 535.782 69.5052 535.783 69.7199C535.784 69.9252 535.743 70.1027 535.659 70.2522C535.576 70.4017 535.464 70.4953 535.324 70.533C535.221 70.4306 535.081 70.3796 534.904 70.38C534.596 70.3807 534.442 70.5257 534.443 70.8151C534.445 71.1044 534.661 71.3885 535.091 71.6675C535.521 71.9465 535.975 72.0855 536.451 72.0843L539.881 72.0763C540.066 71.7958 540.2 71.3989 540.282 70.8853L540.8 70.9401L540.814 74.4121L540.268 74.3574C540.201 73.9562 540.074 73.6252 539.886 73.3643L535.574 73.3744ZM537.241 66.8545C538.287 66.852 539.042 66.7102 539.508 66.4291C539.964 66.1481 540.191 65.6949 540.188 65.0695C540.186 64.4349 539.955 63.9781 539.497 63.6992C539.029 63.4203 538.277 63.282 537.241 63.2845C536.195 63.2869 535.445 63.4287 534.989 63.7098C534.523 63.9908 534.292 64.4487 534.294 65.0834C534.297 65.718 534.527 66.1748 534.986 66.4538C535.444 66.7234 536.196 66.8569 537.241 66.8545ZM539.955 62.7461C540.573 63.2673 540.884 64.0412 540.888 65.0679C540.892 66.0945 540.587 66.8746 539.974 67.408C539.35 67.9322 538.446 68.1956 537.261 68.1984C536.066 68.2012 535.16 67.942 534.542 67.4208C533.914 66.8903 533.598 66.1117 533.594 65.085C533.59 64.0584 533.899 63.283 534.523 62.7588C535.136 62.2254 536.041 61.9573 537.235 61.9545C538.421 61.9517 539.327 62.2156 539.955 62.7461ZM537.211 59.458C538.257 59.4556 539.012 59.3138 539.477 59.0327C539.934 58.7516 540.161 58.2984 540.158 57.6731C540.155 57.0385 539.925 56.5817 539.466 56.3027C538.999 56.0238 538.247 55.8856 537.211 55.888C536.165 55.8905 535.415 56.0323 534.958 56.3133C534.493 56.5944 534.261 57.0523 534.264 57.687C534.267 58.3216 534.497 58.7784 534.956 59.0573C535.414 59.3269 536.166 59.4605 537.211 59.458ZM539.924 55.3497C540.543 55.8709 540.854 56.6448 540.858 57.6715C540.862 58.6981 540.557 59.4782 539.943 60.0116C539.32 60.5358 538.416 60.7992 537.231 60.802C536.036 60.8048 535.13 60.5456 534.512 60.0244C533.884 59.4939 533.568 58.7153 533.564 57.6886C533.56 56.662 533.869 55.8866 534.492 55.3624C535.106 54.829 536.011 54.5609 537.205 54.558C538.391 54.5553 539.297 54.8191 539.924 55.3497ZM535.489 52.4576C535.115 52.4585 534.864 52.5384 534.734 52.6974C534.594 52.847 534.516 53.1179 534.499 53.5099L534.051 53.469C534.013 53.2637 533.842 52.6481 533.539 51.6222L533.678 51.3558L534.462 51.242C534.368 51.1676 534.265 51.0745 534.153 50.9627C534.04 50.8417 533.909 50.6366 533.758 50.3477C533.607 50.0493 533.532 49.7509 533.53 49.4522C533.527 48.5469 533.851 47.9021 534.503 47.5179C533.847 46.8661 533.517 46.2089 533.514 45.5462C533.512 44.8836 533.692 44.3418 534.054 43.921C534.416 43.4908 534.989 43.2748 535.773 43.2729L539.763 43.2635C539.94 43.0298 540.073 42.6795 540.165 42.2126L540.683 42.2674L540.697 45.5853L540.179 45.5446C540.121 45.1714 539.984 44.8404 539.768 44.5515L535.736 44.561C534.738 44.5633 534.24 44.9425 534.243 45.6985C534.244 46.0345 534.372 46.3515 534.625 46.6496C534.869 46.9384 535.136 47.1291 535.425 47.2217L539.779 47.2115C539.956 46.9778 540.09 46.6274 540.181 46.1606L540.699 46.2153L540.713 49.5333L540.195 49.4925C540.137 49.1193 540 48.7883 539.785 48.4995L535.753 48.509C534.754 48.5113 534.256 48.8905 534.259 49.6465C534.261 49.9825 534.388 50.2995 534.641 50.5976C534.885 50.8863 535.152 51.0771 535.441 51.1697L539.795 51.1595C539.981 50.907 540.115 50.5567 540.197 50.1085L540.715 50.1633L540.729 53.4953L540.183 53.4406C540.116 53.0394 539.988 52.7084 539.801 52.4475L535.489 52.4576Z" fill="black"/>
<path d="M439.303 344.77L396.889 344.757C397.415 334.532 405.875 326.404 416.23 326.407L439.313 326.414L439.303 344.77Z" stroke="#FEEAEA" stroke-width="2"/>
<path d="M714.849 415.383L757.257 414.634C756.915 424.867 748.602 433.146 738.249 433.329L715.169 433.736L714.849 415.383Z" stroke="#FEEAEA" stroke-width="2"/>
<path d="M984.529 414.683L947.548 415.005C947.9 425.594 956.79 434.003 967.5 433.635L984.214 433.061L984.529 414.683Z" stroke="#FEEAEA" stroke-width="2"/>
<path d="M297.919 344.771L255.504 344.757C256.03 334.405 264.594 326.173 275.076 326.177L297.929 326.184L297.919 344.771Z" stroke="#FEEAEA" stroke-width="2"/>
<path d="M580.774 344.77L537.639 344.756C538.165 334.378 546.75 326.126 557.258 326.129L580.784 326.137L580.774 344.77Z" stroke="#FEEAEA" stroke-width="2"/>
<path d="M580.685 167.625L538.269 167.612C538.796 156.981 547.585 148.524 558.346 148.528L580.695 148.535L580.685 167.625Z" stroke="#FEEAEA" stroke-width="2"/>
<path d="M490.89 168.43L448.473 168.417C449.001 157.239 458.234 148.34 469.541 148.344L490.901 148.35L490.89 168.43Z" stroke="#FEEAEA" stroke-width="2"/>
<path d="M336.685 3.36173L369.966 3.31613L369.98 11.1972L336.7 11.2428L336.685 3.36173Z" stroke="#FEEAEA" stroke-width="2"/>
<path d="M430.302 3.36173L463.582 3.31613L463.597 11.1972L430.316 11.2428L430.302 3.36173Z" stroke="#FEEAEA" stroke-width="2"/>
<path d="M297.541 167.631L297.507 126.17C308.585 126.686 317.412 135.827 317.422 147.033L317.438 167.621L297.541 167.631Z" stroke="#FEEAEA" stroke-width="2"/>
<path d="M631.064 20.335C630.478 19.7492 629.529 19.7492 628.943 20.335L619.397 29.881C618.811 30.4668 618.811 31.4165 619.397 32.0023C619.983 32.5881 620.932 32.5881 621.518 32.0023L630.003 23.517L638.489 32.0023C639.074 32.5881 640.024 32.5881 640.61 32.0023C641.196 31.4165 641.196 30.4668 640.61 29.881L631.064 20.335ZM631.503 124.168V21.3957H628.503V124.168H631.503Z" fill="#F5F5F5"/>
<path d="M672.888 125.228C673.473 125.814 674.423 125.814 675.009 125.228L684.555 115.682C685.141 115.097 685.141 114.147 684.555 113.561C683.969 112.975 683.019 112.975 682.434 113.561L673.948 122.046L665.463 113.561C664.877 112.975 663.927 112.975 663.342 113.561C662.756 114.147 662.756 115.097 663.342 115.682L672.888 125.228ZM672.448 21.3952L672.448 72.7814L675.448 72.7814L675.448 21.3952L672.448 21.3952ZM672.448 72.7814L672.448 124.168L675.448 124.168L675.448 72.7814L672.448 72.7814Z" fill="#FEEAEA"/>
<path d="M0 639.11H175.629V682.627H980V714H0V639.11Z" fill="#009DE1"/>
<path d="M248.338 656.854C248.338 669.083 235.578 678.997 219.838 678.997C204.098 678.997 191.338 669.083 191.338 656.854C191.338 644.624 204.098 634.71 219.838 634.71C235.578 634.71 248.338 644.624 248.338 656.854Z" fill="#ACA1A1"/>
<path d="M237.018 615.338H249.338V643.284H233.938L233.058 637.694H220.738V657.256H216.338V609.749H236.138L237.018 615.338ZM236.138 637.694H240.538V632.105H244.938V626.516H240.538V620.927H236.138V626.516L233.938 620.927V615.338H229.538V620.927H225.138V615.338H220.738V620.927H225.138V626.516H220.738V632.105H225.138V626.516H229.538V632.105H233.938V626.516L236.138 632.105V637.694ZM229.538 626.516V620.927H233.938V626.516H229.538ZM236.138 626.516H240.538V632.105H236.138V626.516Z" fill="black"/>
<path d="M676 608.664H1050.75V414.439H1083V639.11H676V608.664Z" fill="#009DE1"/>
<path d="M1058.41 552.473C1058.38 550.27 1059.25 549.161 1061.02 549.146C1062.02 549.137 1062.72 549.472 1063.13 550.15C1063.54 550.818 1063.75 551.796 1063.76 553.084L1063.77 553.77L1066.94 553.743C1067.12 553.405 1067.24 552.924 1067.31 552.298L1067.87 552.363L1067.92 556.506L1067.36 556.427C1067.29 555.849 1067.15 555.398 1066.95 555.073L1059.39 555.138C1059.21 555.476 1059.08 555.958 1059.02 556.584L1058.46 556.519L1058.41 552.473ZM1063.09 553.776L1063.08 553.09C1063.06 551.354 1062.37 550.492 1061 550.504C1060.34 550.51 1059.85 550.682 1059.53 551.021C1059.19 551.36 1059.03 551.842 1059.04 552.467C1059.04 552.803 1059.09 553.251 1059.18 553.81L1063.09 553.776ZM1067.91 546.164C1067.92 546.762 1067.78 547.23 1067.48 547.568C1067.18 547.897 1066.73 548.065 1066.13 548.07C1065.52 548.075 1065.03 547.851 1064.65 547.397C1064.27 546.933 1064.04 546.259 1063.97 545.372L1063.87 544.183L1062.64 544.194C1062.14 544.198 1061.77 544.304 1061.55 544.511C1061.32 544.709 1061.21 545.028 1061.21 545.466C1061.22 546.26 1061.45 546.654 1061.91 546.65C1062.16 546.648 1062.35 546.493 1062.47 546.184C1062.94 546.179 1063.18 546.467 1063.19 547.045C1063.19 547.307 1063.12 547.517 1062.96 547.677C1062.8 547.837 1062.59 547.919 1062.33 547.921C1061.81 547.925 1061.4 547.71 1061.09 547.274C1060.78 546.828 1060.62 546.218 1060.61 545.444C1060.6 544.66 1060.78 544.042 1061.13 543.591C1061.48 543.14 1061.98 542.912 1062.62 542.906L1066.84 542.87C1067.01 542.635 1067.14 542.284 1067.23 541.816L1067.75 541.868L1067.77 543.953L1067.1 544.113C1067.63 544.659 1067.9 545.343 1067.91 546.164ZM1066.06 546.74C1066.88 546.733 1067.29 546.412 1067.28 545.778C1067.27 545.274 1066.98 544.735 1066.39 544.161L1064.49 544.178L1064.6 545.311C1064.64 545.759 1064.79 546.112 1065.06 546.371C1065.32 546.621 1065.66 546.744 1066.06 546.74ZM1062.49 540.152C1062.12 540.155 1061.87 540.236 1061.74 540.396C1061.6 540.547 1061.53 540.818 1061.51 541.21L1061.06 541.172C1061.02 540.967 1060.85 540.353 1060.54 539.329L1060.68 539.061L1061.72 538.898C1060.92 538.373 1060.52 537.775 1060.51 537.103C1060.51 536.739 1060.61 536.425 1060.82 536.162C1061.04 535.89 1061.3 535.752 1061.63 535.749C1061.95 535.746 1062.2 535.819 1062.39 535.966C1062.58 536.105 1062.67 536.281 1062.68 536.496C1062.68 536.701 1062.64 536.879 1062.56 537.029C1062.47 537.179 1062.36 537.273 1062.22 537.312C1062.12 537.21 1061.98 537.16 1061.8 537.162C1061.49 537.164 1061.34 537.31 1061.34 537.6C1061.35 537.889 1061.57 538.172 1062 538.448C1062.43 538.724 1062.89 538.86 1063.36 538.856L1066.79 538.826C1066.97 538.545 1067.11 538.147 1067.18 537.633L1067.7 537.684L1067.74 541.156L1067.2 541.105C1067.13 540.704 1067 540.374 1066.81 540.114L1062.49 540.152ZM1059.4 534.04C1059.03 534.044 1058.78 534.125 1058.65 534.285C1058.51 534.435 1058.43 534.707 1058.42 535.099L1057.97 535.061C1057.9 534.679 1057.72 534.013 1057.43 533.063L1057.58 532.768L1063.47 532.717L1061.38 530.789C1061.18 530.595 1060.9 530.443 1060.53 530.334L1060.51 528.319L1060.96 528.273C1060.99 528.954 1061.22 529.488 1061.63 529.877L1063.04 531.209L1066.65 528.979C1066.85 528.651 1066.99 528.197 1067.07 527.618L1067.59 527.669L1067.61 529.825L1063.93 532.055L1064.61 532.707L1066.72 532.689C1066.9 532.435 1067.04 532.084 1067.11 531.635L1067.63 531.687L1067.67 535.019L1067.12 534.967C1067.05 534.567 1066.93 534.236 1066.74 533.977L1059.4 534.04Z" fill="black"/>
<path d="M75.0209 668.539C77.2235 668.564 78.3114 669.458 78.2846 671.222C78.2695 672.221 77.9183 672.917 77.2309 673.31C76.5529 673.704 75.5699 673.893 74.282 673.878L73.596 673.871L73.5481 677.034C73.8813 677.225 74.3599 677.361 74.9841 677.443L74.9056 678.002L70.7619 677.954L70.8544 677.395C71.434 677.337 71.8886 677.211 72.2182 677.019L72.3327 669.46C71.9995 669.269 71.5209 669.133 70.8967 669.051L70.9752 668.492L75.0209 668.539ZM73.6064 673.185L74.2924 673.193C76.0283 673.212 76.9065 672.541 76.9272 671.179C76.9372 670.516 76.7767 670.02 76.4457 669.689C76.1148 669.349 75.6367 669.176 75.0114 669.169C74.6754 669.165 74.2268 669.202 73.6656 669.279L73.6064 673.185ZM81.1014 678.185C80.5041 678.178 80.0397 678.023 79.7083 677.721C79.3863 677.409 79.2298 676.955 79.2388 676.357C79.248 675.751 79.4841 675.264 79.9471 674.896C80.4193 674.528 81.0993 674.316 81.9869 674.261L83.1781 674.191L83.1967 672.959C83.2044 672.455 83.1072 672.09 82.9053 671.863C82.7128 671.628 82.3973 671.507 81.9586 671.502C81.1654 671.493 80.7653 671.717 80.7583 672.175C80.7545 672.427 80.9057 672.615 81.2118 672.74C81.2046 673.216 80.9117 673.451 80.3331 673.444C80.0718 673.441 79.863 673.359 79.7067 673.199C79.5505 673.038 79.4743 672.827 79.4783 672.566C79.4862 672.043 79.7117 671.635 80.1549 671.342C80.6075 671.039 81.2211 670.892 81.9958 670.901C82.7797 670.91 83.3929 671.099 83.8354 671.468C84.278 671.828 84.4944 672.33 84.4846 672.973L84.4208 677.187C84.6515 677.367 84.9994 677.506 85.4646 677.605L85.4008 678.122L83.3149 678.098L83.1711 677.425C82.6126 677.941 81.9227 678.194 81.1014 678.185ZM80.5696 676.317C80.5572 677.138 80.8683 677.552 81.5029 677.56C82.0069 677.565 82.5525 677.282 83.1399 676.71L83.1688 674.806L82.0333 674.891C81.5848 674.924 81.2279 675.069 80.9626 675.327C80.7067 675.586 80.5757 675.915 80.5696 676.317ZM87.2413 672.907C87.247 672.534 87.1715 672.281 87.0148 672.148C86.8676 672.007 86.5981 671.924 86.2064 671.901L86.2552 671.454C86.4611 671.419 87.0796 671.258 88.1107 670.971L88.3746 671.114L88.5127 672.166C89.0567 671.379 89.6646 670.989 90.3366 670.997C90.7006 671.001 91.0116 671.112 91.2696 671.329C91.537 671.547 91.6683 671.819 91.6633 672.146C91.6585 672.463 91.58 672.714 91.4279 672.899C91.2851 673.084 91.1063 673.176 90.8917 673.173C90.6864 673.171 90.5097 673.127 90.3616 673.041C90.2136 672.955 90.122 672.842 90.0867 672.702C90.191 672.6 90.2444 672.461 90.2471 672.284C90.2518 671.976 90.1094 671.82 89.8201 671.817C89.5308 671.813 89.2429 672.025 88.9564 672.451C88.6699 672.877 88.5231 673.328 88.5159 673.804L88.464 677.233C88.7411 677.423 89.1357 677.563 89.6477 677.653L89.5839 678.17L86.1121 678.13L86.1764 677.585C86.5787 677.524 86.9119 677.402 87.176 677.219L87.2413 672.907ZM93.4247 669.954C93.4304 669.581 93.3549 669.328 93.1982 669.195C93.051 669.054 92.7815 668.971 92.3898 668.948L92.4386 668.501C92.8223 668.44 93.4922 668.275 94.4483 668.006L94.74 668.163L94.6507 674.056L96.628 672.007C96.8269 671.813 96.9852 671.535 97.1027 671.172L99.1185 671.195L99.1538 671.644C98.472 671.664 97.9321 671.877 97.5339 672.283L96.169 673.654L98.3117 677.318C98.6353 677.528 99.0857 677.677 99.6631 677.768L99.5992 678.285L97.4434 678.261L95.3017 674.526L94.6336 675.19L94.6016 677.304C94.8507 677.493 95.1986 677.633 95.6453 677.722L95.5815 678.239L92.2497 678.201L92.314 677.656C92.7163 677.595 93.0495 677.473 93.3136 677.289L93.4247 669.954Z" fill="black"/>
<path d="M850.213 617.078C852.415 617.104 853.503 617.998 853.477 619.762C853.461 620.761 853.11 621.457 852.423 621.85C851.745 622.244 850.762 622.433 849.474 622.418L848.788 622.41L848.74 625.574C849.073 625.764 849.552 625.901 850.176 625.982L850.098 626.542L845.954 626.494L846.046 625.935C846.626 625.876 847.081 625.751 847.41 625.559L847.525 618C847.191 617.809 846.713 617.673 846.089 617.591L846.167 617.032L850.213 617.078ZM848.798 621.724L849.484 621.732C851.22 621.752 852.098 621.081 852.119 619.718C852.129 619.056 851.969 618.559 851.638 618.229C851.307 617.889 850.829 617.715 850.203 617.708C849.867 617.704 849.419 617.741 848.857 617.819L848.798 621.724ZM856.293 626.725C855.696 626.718 855.232 626.563 854.9 626.261C854.578 625.949 854.422 625.494 854.431 624.897C854.44 624.291 854.676 623.803 855.139 623.435C855.611 623.067 856.291 622.856 857.179 622.801L858.37 622.73L858.389 621.498C858.396 620.995 858.299 620.629 858.097 620.403C857.905 620.167 857.589 620.047 857.151 620.042C856.357 620.033 855.957 620.257 855.95 620.714C855.946 620.966 856.098 621.155 856.404 621.28C856.397 621.756 856.104 621.99 855.525 621.984C855.264 621.981 855.055 621.899 854.899 621.738C854.742 621.578 854.666 621.367 854.67 621.106C854.678 620.583 854.904 620.175 855.347 619.881C855.799 619.579 856.413 619.432 857.188 619.441C857.972 619.45 858.585 619.639 859.027 620.008C859.47 620.367 859.686 620.869 859.677 621.513L859.613 625.727C859.843 625.907 860.191 626.046 860.657 626.145L860.593 626.662L858.507 626.638L858.363 625.964C857.804 626.481 857.115 626.734 856.293 626.725ZM855.761 624.856C855.749 625.678 856.06 626.092 856.695 626.099C857.199 626.105 857.744 625.822 858.332 625.25L858.361 623.346L857.225 623.431C856.777 623.463 856.42 623.609 856.155 623.867C855.899 624.125 855.768 624.455 855.761 624.856ZM862.433 621.447C862.439 621.074 862.363 620.821 862.207 620.688C862.059 620.547 861.79 620.464 861.398 620.441L861.447 619.993C861.653 619.958 862.272 619.798 863.303 619.511L863.566 619.654L863.705 620.705C864.249 619.918 864.857 619.529 865.528 619.536C865.892 619.54 866.203 619.651 866.462 619.869C866.729 620.087 866.86 620.359 866.855 620.686C866.85 621.003 866.772 621.254 866.62 621.439C866.477 621.624 866.298 621.715 866.084 621.713C865.878 621.71 865.702 621.666 865.554 621.581C865.405 621.495 865.314 621.382 865.279 621.242C865.383 621.14 865.436 621.001 865.439 620.823C865.444 620.515 865.301 620.36 865.012 620.356C864.723 620.353 864.435 620.564 864.148 620.991C863.862 621.417 863.715 621.868 863.708 622.344L863.656 625.773C863.933 625.963 864.328 626.103 864.84 626.193L864.776 626.71L861.304 626.67L861.368 626.125C861.771 626.064 862.104 625.942 862.368 625.758L862.433 621.447ZM868.617 618.494C868.622 618.12 868.547 617.867 868.39 617.735C868.243 617.593 867.973 617.511 867.582 617.488L867.631 617.04C868.014 616.979 868.684 616.814 869.64 616.545L869.932 616.703L869.843 622.596L871.82 620.547C872.019 620.353 872.177 620.075 872.295 619.712L874.31 619.735L874.346 620.184C873.664 620.204 873.124 620.417 872.726 620.823L871.361 622.193L873.504 625.858C873.827 626.067 874.278 626.217 874.855 626.308L874.791 626.825L872.635 626.8L870.494 623.065L869.825 623.73L869.793 625.844C870.043 626.033 870.391 626.172 870.837 626.262L870.773 626.779L867.442 626.741L867.506 626.195C867.908 626.135 868.241 626.012 868.506 625.829L868.617 618.494Z" fill="black"/>
<rect x="1050" y="3.05615" width="33" height="342.648" fill="#009DE1"/>
<path d="M1056.41 180.28C1056.39 178.077 1057.26 176.968 1059.02 176.951C1060.02 176.942 1060.73 177.276 1061.13 177.953C1061.54 178.621 1061.75 179.599 1061.77 180.887L1061.78 181.573L1064.94 181.543C1065.12 181.205 1065.25 180.724 1065.32 180.098L1065.88 180.162L1065.92 184.306L1065.36 184.227C1065.29 183.649 1065.15 183.198 1064.95 182.873L1057.39 182.945C1057.21 183.282 1057.09 183.764 1057.02 184.39L1056.46 184.326L1056.41 180.28ZM1061.09 181.58L1061.08 180.894C1061.06 179.158 1060.37 178.296 1059.01 178.309C1058.35 178.315 1057.86 178.488 1057.53 178.827C1057.2 179.166 1057.04 179.649 1057.04 180.274C1057.05 180.61 1057.09 181.057 1057.18 181.617L1061.09 181.58ZM1065.92 173.964C1065.93 174.561 1065.78 175.029 1065.49 175.368C1065.19 175.697 1064.73 175.865 1064.14 175.871C1063.53 175.876 1063.04 175.652 1062.66 175.199C1062.28 174.736 1062.06 174.061 1061.98 173.175L1061.88 171.986L1060.65 171.997C1060.15 172.002 1059.78 172.108 1059.56 172.316C1059.33 172.514 1059.22 172.832 1059.22 173.271C1059.23 174.064 1059.46 174.459 1059.92 174.455C1060.17 174.452 1060.36 174.296 1060.48 173.987C1060.95 173.983 1061.19 174.27 1061.2 174.848C1061.2 175.11 1061.13 175.32 1060.97 175.481C1060.81 175.641 1060.6 175.722 1060.34 175.725C1059.82 175.73 1059.41 175.514 1059.1 175.078C1058.79 174.633 1058.63 174.023 1058.62 173.249C1058.61 172.465 1058.79 171.847 1059.15 171.396C1059.5 170.944 1059.99 170.716 1060.64 170.71L1064.85 170.67C1065.03 170.435 1065.16 170.083 1065.25 169.616L1065.77 169.667L1065.79 171.753L1065.12 171.913C1065.65 172.459 1065.91 173.142 1065.92 173.964ZM1064.07 174.541C1064.89 174.534 1065.3 174.212 1065.29 173.578C1065.28 173.074 1064.99 172.535 1064.4 171.962L1062.5 171.98L1062.61 173.113C1062.65 173.561 1062.8 173.914 1063.07 174.173C1063.33 174.422 1063.67 174.545 1064.07 174.541ZM1060.51 167.955C1060.14 167.959 1059.89 168.041 1059.76 168.2C1059.62 168.351 1059.54 168.622 1059.53 169.015L1059.08 168.977C1059.04 168.772 1058.87 168.158 1058.56 167.134L1058.69 166.866L1059.74 166.702C1058.94 166.178 1058.54 165.58 1058.53 164.908C1058.53 164.544 1058.63 164.23 1058.84 163.967C1059.06 163.694 1059.33 163.556 1059.65 163.553C1059.97 163.55 1060.22 163.622 1060.41 163.77C1060.6 163.908 1060.69 164.085 1060.7 164.299C1060.7 164.505 1060.66 164.682 1060.58 164.833C1060.49 164.983 1060.38 165.077 1060.24 165.116C1060.14 165.014 1060 164.964 1059.82 164.966C1059.51 164.969 1059.36 165.115 1059.36 165.404C1059.37 165.693 1059.58 165.976 1060.02 166.252C1060.45 166.528 1060.9 166.664 1061.38 166.659L1064.81 166.627C1064.99 166.345 1065.12 165.947 1065.2 165.433L1065.72 165.484L1065.76 168.956L1065.21 168.905C1065.14 168.504 1065.01 168.174 1064.82 167.914L1060.51 167.955ZM1057.42 161.846C1057.05 161.85 1056.8 161.931 1056.67 162.091C1056.53 162.242 1056.45 162.513 1056.44 162.906L1055.99 162.868C1055.92 162.486 1055.74 161.82 1055.45 160.871L1055.6 160.575L1061.5 160.52L1059.4 158.593C1059.21 158.399 1058.92 158.248 1058.56 158.139L1058.54 156.123L1058.98 156.077C1059.02 156.758 1059.24 157.293 1059.66 157.681L1061.06 159.012L1064.68 156.779C1064.88 156.451 1065.02 155.997 1065.1 155.417L1065.61 155.468L1065.64 157.624L1061.95 159.857L1062.63 160.509L1064.74 160.489C1064.93 160.235 1065.06 159.884 1065.14 159.435L1065.66 159.486L1065.69 162.818L1065.15 162.767C1065.08 162.366 1064.95 162.036 1064.76 161.777L1057.42 161.846Z" fill="black"/>
<path d="M922.18 32.2325V20.4963H924.814L930.303 28.3346V20.4963H932.82V32.2325H930.102L924.696 24.579V32.2325H922.18ZM922.18 163.307L924.75 163.091C924.905 163.839 925.217 164.388 925.687 164.739C926.163 165.089 926.803 165.264 927.606 165.264C928.457 165.264 929.097 165.109 929.525 164.8C929.96 164.486 930.177 164.119 930.177 163.702C930.177 163.434 930.085 163.207 929.9 163.021C929.722 162.83 929.407 162.665 928.955 162.527C928.644 162.434 927.939 162.268 926.84 162.031C925.423 161.727 924.429 161.352 923.858 160.908C923.054 160.284 922.652 159.524 922.652 158.627C922.652 158.05 922.839 157.511 923.214 157.011C923.596 156.505 924.14 156.121 924.849 155.857C925.563 155.593 926.423 155.461 927.429 155.461C929.07 155.461 930.304 155.774 931.132 156.399C931.965 157.023 932.403 157.856 932.444 158.897L929.802 158.998C929.689 158.415 929.445 157.998 929.07 157.745C928.701 157.487 928.145 157.358 927.401 157.358C926.633 157.358 926.032 157.495 925.598 157.769C925.318 157.944 925.179 158.179 925.179 158.473C925.179 158.74 925.309 158.969 925.571 159.161C925.904 159.403 926.714 159.655 928 159.918C929.285 160.182 930.234 160.456 930.846 160.74C931.466 161.017 931.948 161.401 932.293 161.891C932.644 162.376 932.82 162.977 932.82 163.694C932.82 164.344 932.611 164.952 932.194 165.519C931.778 166.087 931.188 166.51 930.427 166.788C929.665 167.062 928.716 167.199 927.581 167.199C925.925 167.199 924.654 166.869 923.768 166.209C922.881 165.544 922.352 164.576 922.18 163.307ZM983.36 99.7158V87.9795H993.734V89.9644H986.184V92.5669H993.207V94.5445H986.184V97.7382H994V99.7158H983.36ZM862.936 99.7158L861 87.9795H862.675L863.898 96.0409L865.379 87.9795H867.326L868.748 96.1773L869.99 87.9795H871.64L869.671 99.7158H867.934L866.32 90.9415L864.71 99.7143L862.936 99.7158Z" fill="#CC6633"/>
<mask id="path-40-inside-1_69_63" fill="white">
<path d="M927.94 33.833C927.142 33.8284 926.704 34.4382 926.581 35.1525L923.283 47.6242C915.43 48.6107 907.988 52.0737 901.822 57.6113C898.395 55.5261 894.97 53.4303 891.541 51.3572C890.907 50.9744 890.351 51.0032 889.838 51.5827C889.323 52.1623 889.469 53.0157 889.759 53.6301L895.253 64.9714C890.287 71.8923 887.181 80.2539 886.297 89.0796C882.552 90.325 878.801 91.5597 875.061 92.8127C874.372 93.0442 873.998 93.5057 874 94.3228C874.002 95.1399 874.642 95.6287 875.236 95.833L886.291 99.504C887.15 108.349 890.24 116.737 895.2 123.685C893.33 127.546 891.45 131.408 889.589 135.273C889.248 135.984 889.273 136.604 889.792 137.181C890.308 137.756 891.069 137.596 891.617 137.272L901.792 131.081C907.965 136.638 915.419 140.113 923.287 141.102C924.396 145.301 925.501 149.506 926.618 153.699C926.825 154.471 927.237 154.89 927.966 154.888C928.695 154.885 929.131 154.168 929.313 153.502L932.588 141.111C940.497 140.145 947.995 136.662 954.196 131.075L964.413 137.294C965.154 137.718 965.655 137.792 966.222 137.163C966.79 136.533 966.716 135.753 966.353 135.15L960.791 123.661C965.74 116.72 968.826 108.345 969.689 99.5131L980.803 95.8209C981.594 95.5334 981.995 95.1899 981.999 94.2941C982.004 93.3998 981.459 92.908 980.822 92.7703L969.658 89.0615C968.776 80.2524 965.683 71.9044 960.738 64.9866L966.26 53.5907C966.636 52.7585 966.703 52.1986 966.141 51.5615C966.025 51.4213 965.885 51.3083 965.729 51.2291C965.574 51.1499 965.406 51.106 965.235 51.1C964.917 51.1011 964.606 51.212 964.346 51.4178L954.158 57.6173C947.966 52.0436 940.483 48.5682 932.588 47.6L929.302 35.1737C929.046 34.2869 928.739 33.8375 927.94 33.833ZM927.939 40.1521L927.939 87.1215C926.847 87.1338 925.776 87.456 924.826 88.0582L918.104 78.513L925.143 51.0592L926.088 47.3655L927.939 40.1521ZM933.589 51.386C939.931 52.4141 945.944 55.1992 951.085 59.4891L937.859 67.5363L933.589 51.386ZM922.28 51.4238L918.035 67.4743C913.66 64.808 909.282 62.1524 904.905 59.4876C910.014 55.2332 915.983 52.4628 922.28 51.4238ZM893.777 56.0012L914.84 79.5616L914.829 79.5964C912.146 80.4877 909.467 81.382 906.783 82.2718L898.699 65.9399L897.048 62.6033L893.777 56.0012ZM962.152 56.0285L957.639 61.0886L955.38 63.6186L941.135 79.5874L941.034 79.5541L938.666 70.602L953.334 61.5002L955.099 60.4077L956.301 59.6601L962.152 56.0285ZM959.076 68.4185C962.892 74.1572 965.376 80.8684 966.306 87.9493L951.931 83.1736L959.076 68.4185ZM896.924 68.4306L904.065 83.1751C899.267 84.764 894.475 86.365 889.678 87.9568C890.612 80.8756 893.102 74.1656 896.924 68.4306ZM942.003 83.2281L966.63 91.1572L969.887 92.2074L976.361 94.2926L934.457 94.2926C934.446 93.056 934.152 91.8432 933.605 90.7699L942.003 83.2281ZM921.542 94.2926L921.54 94.3607C921.54 95.5682 921.81 96.756 922.324 97.8168L913.825 105.318L905.399 102.612L889.361 97.4672V97.4642L886.07 96.408L879.572 94.3228L921.542 94.2926ZM966.341 100.624C965.424 107.727 962.943 114.462 959.121 120.22L951.949 105.405L966.341 100.624ZM889.674 100.628L904.048 105.402C901.652 110.343 899.266 115.287 896.871 120.227C893.058 114.465 890.584 107.73 889.674 100.628ZM931.115 100.699L937.811 110.098L935.377 119.625L930.767 137.668L929.825 141.359L927.964 148.642L927.937 101.597C929.074 101.6 930.254 101.267 931.115 100.699ZM949.209 106.313L957.323 122.747L958.967 126.074L962.235 132.693L957.681 127.586L955.422 125.056L941.103 109.005L949.209 106.313ZM914.818 109.086C915.617 112.112 916.421 115.132 917.218 118.159L902.657 127.214L899.678 129.066L893.731 132.765L914.818 109.086ZM937.868 121.14L951.125 129.209C945.974 133.507 939.946 136.294 933.59 137.317L937.868 121.14ZM918.023 121.203C919.441 126.575 920.866 131.942 922.285 137.313C915.973 136.266 909.992 133.479 904.878 129.202L918.023 121.203Z"/>
</mask>
<path d="M927.94 33.833C927.142 33.8284 926.704 34.4382 926.581 35.1525L923.283 47.6242C915.43 48.6107 907.988 52.0737 901.822 57.6113C898.395 55.5261 894.97 53.4303 891.541 51.3572C890.907 50.9744 890.351 51.0032 889.838 51.5827C889.323 52.1623 889.469 53.0157 889.759 53.6301L895.253 64.9714C890.287 71.8923 887.181 80.2539 886.297 89.0796C882.552 90.325 878.801 91.5597 875.061 92.8127C874.372 93.0442 873.998 93.5057 874 94.3228C874.002 95.1399 874.642 95.6287 875.236 95.833L886.291 99.504C887.15 108.349 890.24 116.737 895.2 123.685C893.33 127.546 891.45 131.408 889.589 135.273C889.248 135.984 889.273 136.604 889.792 137.181C890.308 137.756 891.069 137.596 891.617 137.272L901.792 131.081C907.965 136.638 915.419 140.113 923.287 141.102C924.396 145.301 925.501 149.506 926.618 153.699C926.825 154.471 927.237 154.89 927.966 154.888C928.695 154.885 929.131 154.168 929.313 153.502L932.588 141.111C940.497 140.145 947.995 136.662 954.196 131.075L964.413 137.294C965.154 137.718 965.655 137.792 966.222 137.163C966.79 136.533 966.716 135.753 966.353 135.15L960.791 123.661C965.74 116.72 968.826 108.345 969.689 99.5131L980.803 95.8209C981.594 95.5334 981.995 95.1899 981.999 94.2941C982.004 93.3998 981.459 92.908 980.822 92.7703L969.658 89.0615C968.776 80.2524 965.683 71.9044 960.738 64.9866L966.26 53.5907C966.636 52.7585 966.703 52.1986 966.141 51.5615C966.025 51.4213 965.885 51.3083 965.729 51.2291C965.574 51.1499 965.406 51.106 965.235 51.1C964.917 51.1011 964.606 51.212 964.346 51.4178L954.158 57.6173C947.966 52.0436 940.483 48.5682 932.588 47.6L929.302 35.1737C929.046 34.2869 928.739 33.8375 927.94 33.833ZM927.939 40.1521L927.939 87.1215C926.847 87.1338 925.776 87.456 924.826 88.0582L918.104 78.513L925.143 51.0592L926.088 47.3655L927.939 40.1521ZM933.589 51.386C939.931 52.4141 945.944 55.1992 951.085 59.4891L937.859 67.5363L933.589 51.386ZM922.28 51.4238L918.035 67.4743C913.66 64.808 909.282 62.1524 904.905 59.4876C910.014 55.2332 915.983 52.4628 922.28 51.4238ZM893.777 56.0012L914.84 79.5616L914.829 79.5964C912.146 80.4877 909.467 81.382 906.783 82.2718L898.699 65.9399L897.048 62.6033L893.777 56.0012ZM962.152 56.0285L957.639 61.0886L955.38 63.6186L941.135 79.5874L941.034 79.5541L938.666 70.602L953.334 61.5002L955.099 60.4077L956.301 59.6601L962.152 56.0285ZM959.076 68.4185C962.892 74.1572 965.376 80.8684 966.306 87.9493L951.931 83.1736L959.076 68.4185ZM896.924 68.4306L904.065 83.1751C899.267 84.764 894.475 86.365 889.678 87.9568C890.612 80.8756 893.102 74.1656 896.924 68.4306ZM942.003 83.2281L966.63 91.1572L969.887 92.2074L976.361 94.2926L934.457 94.2926C934.446 93.056 934.152 91.8432 933.605 90.7699L942.003 83.2281ZM921.542 94.2926L921.54 94.3607C921.54 95.5682 921.81 96.756 922.324 97.8168L913.825 105.318L905.399 102.612L889.361 97.4672V97.4642L886.07 96.408L879.572 94.3228L921.542 94.2926ZM966.341 100.624C965.424 107.727 962.943 114.462 959.121 120.22L951.949 105.405L966.341 100.624ZM889.674 100.628L904.048 105.402C901.652 110.343 899.266 115.287 896.871 120.227C893.058 114.465 890.584 107.73 889.674 100.628ZM931.115 100.699L937.811 110.098L935.377 119.625L930.767 137.668L929.825 141.359L927.964 148.642L927.937 101.597C929.074 101.6 930.254 101.267 931.115 100.699ZM949.209 106.313L957.323 122.747L958.967 126.074L962.235 132.693L957.681 127.586L955.422 125.056L941.103 109.005L949.209 106.313ZM914.818 109.086C915.617 112.112 916.421 115.132 917.218 118.159L902.657 127.214L899.678 129.066L893.731 132.765L914.818 109.086ZM937.868 121.14L951.125 129.209C945.974 133.507 939.946 136.294 933.59 137.317L937.868 121.14ZM918.023 121.203C919.441 126.575 920.866 131.942 922.285 137.313C915.973 136.266 909.992 133.479 904.878 129.202L918.023 121.203Z" fill="white" fill-opacity="0.6" stroke="#CC6633" stroke-width="2" mask="url(#path-40-inside-1_69_63)"/>
<path d="M715.709 215.667L715.37 243.423C729.422 239.554 736.69 227.681 737.055 215.644L715.709 215.667ZM715.724 213.667L737.052 213.644C736.659 201.845 729.613 190.408 715.796 186.726L715.724 213.667Z" stroke="white" stroke-width="2"/>
<path d="M759.696 344.631L787.453 344.794C783.496 330.767 771.577 323.574 759.538 323.286L759.696 344.631ZM757.696 344.629L757.538 323.301C745.741 323.769 734.349 330.887 730.754 344.727L757.696 344.629Z" stroke="white" stroke-width="2"/>
<path d="M170.469 344.447L198.227 344.61C194.269 330.584 182.35 323.391 170.311 323.102L170.469 344.447ZM168.469 344.445L168.311 323.118C156.515 323.585 145.123 330.704 141.527 344.543L168.469 344.445Z" stroke="white" stroke-width="2"/>
<path d="M950.469 344.447L978.227 344.61C974.269 330.584 962.35 323.391 950.311 323.102L950.469 344.447ZM948.469 344.445L948.311 323.118C936.515 323.585 925.123 330.704 921.527 344.543L948.469 344.445Z" stroke="white" stroke-width="2"/>

</svg>
