<svg width="1007" height="1254" viewBox="0 0 1007 1254" fill="none" xmlns="http://www.w3.org/2000/svg">
<rect x="308.5" y="0.5" width="698" height="1253" fill="#D9D9D9" stroke="white"/>
<mask id="path-2-inside-1_283_102" fill="white">
<path d="M0 834H308V1254H0V834Z"/>
</mask>
<path d="M0 834H308V1254H0V834Z" fill="#D9D9D9"/>
<path d="M0 834V833H-1V834H0ZM0 1254H-1V1255H0V1254ZM0 835H308V833H0V835ZM308 1253H0V1255H308V1253ZM1 1254V834H-1V1254H1Z" fill="white" mask="url(#path-2-inside-1_283_102)"/>
<rect x="308.5" y="0.5" width="698" height="365" fill="#D9D9D9" stroke="white"/>
<rect x="719.5" y="366.5" width="287" height="101" fill="#D9D9D9" stroke="white"/>
<rect x="308.5" y="366.5" width="410" height="162" fill="#D9D9D9" stroke="white"/>
<rect x="308.5" y="529.5" width="410" height="185" fill="#D9D9D9" stroke="white"/>
<rect x="719.5" y="469.5" width="287" height="101" fill="#D9D9D9" stroke="white"/>
<rect x="719.5" y="571.5" width="287" height="143" fill="#D9D9D9" stroke="white"/>
</svg>
